<mxfile host="app.diagrams.net" modified="2024-03-11T10:09:05.809Z" agent="Mozilla/5.0 (Windows NT 10.0; Win64; x64) AppleWebKit/537.36 (KHTML, like Gecko) Chrome/122.0.0.0 Safari/537.36 Edg/122.0.0.0" etag="DUEt_T0WbpuPudYrOEvP" version="24.0.2" type="github">
  <diagram id="R2lEEEUBdFMjLlhIrx00" name="Page-1">
    <mxGraphModel dx="2038" dy="1961" grid="1" gridSize="10" guides="1" tooltips="1" connect="1" arrows="1" fold="1" page="1" pageScale="1" pageWidth="850" pageHeight="1100" math="0" shadow="0" extFonts="Permanent Marker^https://fonts.googleapis.com/css?family=Permanent+Marker">
      <root>
        <mxCell id="0" />
        <mxCell id="1" parent="0" />
        <mxCell id="Lgd85yXxA8p3wqPTsEd0-1" value="insight_contract" style="shape=table;startSize=30;container=1;collapsible=1;childLayout=tableLayout;fixedRows=1;rowLines=0;fontStyle=1;align=center;resizeLast=1;" parent="1" vertex="1">
          <mxGeometry x="-350" y="-1000" width="380" height="1630" as="geometry" />
        </mxCell>
        <mxCell id="Lgd85yXxA8p3wqPTsEd0-2" value="" style="shape=partialRectangle;collapsible=0;dropTarget=0;pointerEvents=0;fillColor=none;points=[[0,0.5],[1,0.5]];portConstraint=eastwest;top=0;left=0;right=0;bottom=1;" parent="Lgd85yXxA8p3wqPTsEd0-1" vertex="1">
          <mxGeometry y="30" width="380" height="30" as="geometry" />
        </mxCell>
        <mxCell id="Lgd85yXxA8p3wqPTsEd0-3" value="PK" style="shape=partialRectangle;overflow=hidden;connectable=0;fillColor=none;top=0;left=0;bottom=0;right=0;fontStyle=1;" parent="Lgd85yXxA8p3wqPTsEd0-2" vertex="1">
          <mxGeometry width="30" height="30" as="geometry">
            <mxRectangle width="30" height="30" as="alternateBounds" />
          </mxGeometry>
        </mxCell>
        <mxCell id="Lgd85yXxA8p3wqPTsEd0-4" value="contract_number   varchar(100)" style="shape=partialRectangle;overflow=hidden;connectable=0;fillColor=none;top=0;left=0;bottom=0;right=0;align=left;spacingLeft=6;fontStyle=1;" parent="Lgd85yXxA8p3wqPTsEd0-2" vertex="1">
          <mxGeometry x="30" width="350" height="30" as="geometry">
            <mxRectangle width="350" height="30" as="alternateBounds" />
          </mxGeometry>
        </mxCell>
        <mxCell id="Lgd85yXxA8p3wqPTsEd0-5" value="" style="shape=partialRectangle;collapsible=0;dropTarget=0;pointerEvents=0;fillColor=none;points=[[0,0.5],[1,0.5]];portConstraint=eastwest;top=0;left=0;right=0;bottom=0;" parent="Lgd85yXxA8p3wqPTsEd0-1" vertex="1">
          <mxGeometry y="60" width="380" height="30" as="geometry" />
        </mxCell>
        <mxCell id="Lgd85yXxA8p3wqPTsEd0-6" value="" style="shape=partialRectangle;overflow=hidden;connectable=0;fillColor=none;top=0;left=0;bottom=0;right=0;" parent="Lgd85yXxA8p3wqPTsEd0-5" vertex="1">
          <mxGeometry width="30" height="30" as="geometry">
            <mxRectangle width="30" height="30" as="alternateBounds" />
          </mxGeometry>
        </mxCell>
        <mxCell id="Lgd85yXxA8p3wqPTsEd0-7" value="customer_number  varchar(200)" style="shape=partialRectangle;overflow=hidden;connectable=0;fillColor=none;top=0;left=0;bottom=0;right=0;align=left;spacingLeft=6;" parent="Lgd85yXxA8p3wqPTsEd0-5" vertex="1">
          <mxGeometry x="30" width="350" height="30" as="geometry">
            <mxRectangle width="350" height="30" as="alternateBounds" />
          </mxGeometry>
        </mxCell>
        <mxCell id="bq9kwz9mXwM456cV49Q8-8" value="" style="shape=partialRectangle;collapsible=0;dropTarget=0;pointerEvents=0;fillColor=none;points=[[0,0.5],[1,0.5]];portConstraint=eastwest;top=0;left=0;right=0;bottom=0;" parent="Lgd85yXxA8p3wqPTsEd0-1" vertex="1">
          <mxGeometry y="90" width="380" height="30" as="geometry" />
        </mxCell>
        <mxCell id="bq9kwz9mXwM456cV49Q8-9" value="" style="shape=partialRectangle;overflow=hidden;connectable=0;fillColor=none;top=0;left=0;bottom=0;right=0;" parent="bq9kwz9mXwM456cV49Q8-8" vertex="1">
          <mxGeometry width="30" height="30" as="geometry">
            <mxRectangle width="30" height="30" as="alternateBounds" />
          </mxGeometry>
        </mxCell>
        <mxCell id="bq9kwz9mXwM456cV49Q8-10" value="contract_financial_product_type  varchar(100)" style="shape=partialRectangle;overflow=hidden;connectable=0;fillColor=none;top=0;left=0;bottom=0;right=0;align=left;spacingLeft=6;" parent="bq9kwz9mXwM456cV49Q8-8" vertex="1">
          <mxGeometry x="30" width="350" height="30" as="geometry">
            <mxRectangle width="350" height="30" as="alternateBounds" />
          </mxGeometry>
        </mxCell>
        <mxCell id="bq9kwz9mXwM456cV49Q8-11" value="" style="shape=partialRectangle;collapsible=0;dropTarget=0;pointerEvents=0;fillColor=none;points=[[0,0.5],[1,0.5]];portConstraint=eastwest;top=0;left=0;right=0;bottom=0;" parent="Lgd85yXxA8p3wqPTsEd0-1" vertex="1">
          <mxGeometry y="120" width="380" height="30" as="geometry" />
        </mxCell>
        <mxCell id="bq9kwz9mXwM456cV49Q8-12" value="" style="shape=partialRectangle;overflow=hidden;connectable=0;fillColor=none;top=0;left=0;bottom=0;right=0;" parent="bq9kwz9mXwM456cV49Q8-11" vertex="1">
          <mxGeometry width="30" height="30" as="geometry">
            <mxRectangle width="30" height="30" as="alternateBounds" />
          </mxGeometry>
        </mxCell>
        <mxCell id="bq9kwz9mXwM456cV49Q8-13" value="contract_id  int8" style="shape=partialRectangle;overflow=hidden;connectable=0;fillColor=none;top=0;left=0;bottom=0;right=0;align=left;spacingLeft=6;" parent="bq9kwz9mXwM456cV49Q8-11" vertex="1">
          <mxGeometry x="30" width="350" height="30" as="geometry">
            <mxRectangle width="350" height="30" as="alternateBounds" />
          </mxGeometry>
        </mxCell>
        <mxCell id="bq9kwz9mXwM456cV49Q8-14" value="" style="shape=partialRectangle;collapsible=0;dropTarget=0;pointerEvents=0;fillColor=none;points=[[0,0.5],[1,0.5]];portConstraint=eastwest;top=0;left=0;right=0;bottom=0;" parent="Lgd85yXxA8p3wqPTsEd0-1" vertex="1">
          <mxGeometry y="150" width="380" height="30" as="geometry" />
        </mxCell>
        <mxCell id="bq9kwz9mXwM456cV49Q8-15" value="" style="shape=partialRectangle;overflow=hidden;connectable=0;fillColor=none;top=0;left=0;bottom=0;right=0;" parent="bq9kwz9mXwM456cV49Q8-14" vertex="1">
          <mxGeometry width="30" height="30" as="geometry">
            <mxRectangle width="30" height="30" as="alternateBounds" />
          </mxGeometry>
        </mxCell>
        <mxCell id="bq9kwz9mXwM456cV49Q8-16" value="contract_activation_date  date" style="shape=partialRectangle;overflow=hidden;connectable=0;fillColor=none;top=0;left=0;bottom=0;right=0;align=left;spacingLeft=6;" parent="bq9kwz9mXwM456cV49Q8-14" vertex="1">
          <mxGeometry x="30" width="350" height="30" as="geometry">
            <mxRectangle width="350" height="30" as="alternateBounds" />
          </mxGeometry>
        </mxCell>
        <mxCell id="bq9kwz9mXwM456cV49Q8-17" value="" style="shape=partialRectangle;collapsible=0;dropTarget=0;pointerEvents=0;fillColor=none;points=[[0,0.5],[1,0.5]];portConstraint=eastwest;top=0;left=0;right=0;bottom=0;" parent="Lgd85yXxA8p3wqPTsEd0-1" vertex="1">
          <mxGeometry y="180" width="380" height="30" as="geometry" />
        </mxCell>
        <mxCell id="bq9kwz9mXwM456cV49Q8-18" value="" style="shape=partialRectangle;overflow=hidden;connectable=0;fillColor=none;top=0;left=0;bottom=0;right=0;" parent="bq9kwz9mXwM456cV49Q8-17" vertex="1">
          <mxGeometry width="30" height="30" as="geometry">
            <mxRectangle width="30" height="30" as="alternateBounds" />
          </mxGeometry>
        </mxCell>
        <mxCell id="bq9kwz9mXwM456cV49Q8-19" value="contract_starting_date  date" style="shape=partialRectangle;overflow=hidden;connectable=0;fillColor=none;top=0;left=0;bottom=0;right=0;align=left;spacingLeft=6;" parent="bq9kwz9mXwM456cV49Q8-17" vertex="1">
          <mxGeometry x="30" width="350" height="30" as="geometry">
            <mxRectangle width="350" height="30" as="alternateBounds" />
          </mxGeometry>
        </mxCell>
        <mxCell id="bq9kwz9mXwM456cV49Q8-20" value="" style="shape=partialRectangle;collapsible=0;dropTarget=0;pointerEvents=0;fillColor=none;points=[[0,0.5],[1,0.5]];portConstraint=eastwest;top=0;left=0;right=0;bottom=0;" parent="Lgd85yXxA8p3wqPTsEd0-1" vertex="1">
          <mxGeometry y="210" width="380" height="30" as="geometry" />
        </mxCell>
        <mxCell id="bq9kwz9mXwM456cV49Q8-21" value="" style="shape=partialRectangle;overflow=hidden;connectable=0;fillColor=none;top=0;left=0;bottom=0;right=0;" parent="bq9kwz9mXwM456cV49Q8-20" vertex="1">
          <mxGeometry width="30" height="30" as="geometry">
            <mxRectangle width="30" height="30" as="alternateBounds" />
          </mxGeometry>
        </mxCell>
        <mxCell id="bq9kwz9mXwM456cV49Q8-22" value="contract_ending_date  date" style="shape=partialRectangle;overflow=hidden;connectable=0;fillColor=none;top=0;left=0;bottom=0;right=0;align=left;spacingLeft=6;" parent="bq9kwz9mXwM456cV49Q8-20" vertex="1">
          <mxGeometry x="30" width="350" height="30" as="geometry">
            <mxRectangle width="350" height="30" as="alternateBounds" />
          </mxGeometry>
        </mxCell>
        <mxCell id="bq9kwz9mXwM456cV49Q8-23" value="" style="shape=partialRectangle;collapsible=0;dropTarget=0;pointerEvents=0;fillColor=none;points=[[0,0.5],[1,0.5]];portConstraint=eastwest;top=0;left=0;right=0;bottom=0;" parent="Lgd85yXxA8p3wqPTsEd0-1" vertex="1">
          <mxGeometry y="240" width="380" height="30" as="geometry" />
        </mxCell>
        <mxCell id="bq9kwz9mXwM456cV49Q8-24" value="" style="shape=partialRectangle;overflow=hidden;connectable=0;fillColor=none;top=0;left=0;bottom=0;right=0;" parent="bq9kwz9mXwM456cV49Q8-23" vertex="1">
          <mxGeometry width="30" height="30" as="geometry">
            <mxRectangle width="30" height="30" as="alternateBounds" />
          </mxGeometry>
        </mxCell>
        <mxCell id="bq9kwz9mXwM456cV49Q8-25" value="contract_installment_starting_date  date" style="shape=partialRectangle;overflow=hidden;connectable=0;fillColor=none;top=0;left=0;bottom=0;right=0;align=left;spacingLeft=6;" parent="bq9kwz9mXwM456cV49Q8-23" vertex="1">
          <mxGeometry x="30" width="350" height="30" as="geometry">
            <mxRectangle width="350" height="30" as="alternateBounds" />
          </mxGeometry>
        </mxCell>
        <mxCell id="bq9kwz9mXwM456cV49Q8-26" value="" style="shape=partialRectangle;collapsible=0;dropTarget=0;pointerEvents=0;fillColor=none;points=[[0,0.5],[1,0.5]];portConstraint=eastwest;top=0;left=0;right=0;bottom=0;" parent="Lgd85yXxA8p3wqPTsEd0-1" vertex="1">
          <mxGeometry y="270" width="380" height="30" as="geometry" />
        </mxCell>
        <mxCell id="bq9kwz9mXwM456cV49Q8-27" value="" style="shape=partialRectangle;overflow=hidden;connectable=0;fillColor=none;top=0;left=0;bottom=0;right=0;" parent="bq9kwz9mXwM456cV49Q8-26" vertex="1">
          <mxGeometry width="30" height="30" as="geometry">
            <mxRectangle width="30" height="30" as="alternateBounds" />
          </mxGeometry>
        </mxCell>
        <mxCell id="bq9kwz9mXwM456cV49Q8-28" value="contract_term  int2" style="shape=partialRectangle;overflow=hidden;connectable=0;fillColor=none;top=0;left=0;bottom=0;right=0;align=left;spacingLeft=6;" parent="bq9kwz9mXwM456cV49Q8-26" vertex="1">
          <mxGeometry x="30" width="350" height="30" as="geometry">
            <mxRectangle width="350" height="30" as="alternateBounds" />
          </mxGeometry>
        </mxCell>
        <mxCell id="bq9kwz9mXwM456cV49Q8-29" value="" style="shape=partialRectangle;collapsible=0;dropTarget=0;pointerEvents=0;fillColor=none;points=[[0,0.5],[1,0.5]];portConstraint=eastwest;top=0;left=0;right=0;bottom=0;" parent="Lgd85yXxA8p3wqPTsEd0-1" vertex="1">
          <mxGeometry y="300" width="380" height="30" as="geometry" />
        </mxCell>
        <mxCell id="bq9kwz9mXwM456cV49Q8-30" value="" style="shape=partialRectangle;overflow=hidden;connectable=0;fillColor=none;top=0;left=0;bottom=0;right=0;" parent="bq9kwz9mXwM456cV49Q8-29" vertex="1">
          <mxGeometry width="30" height="30" as="geometry">
            <mxRectangle width="30" height="30" as="alternateBounds" />
          </mxGeometry>
        </mxCell>
        <mxCell id="bq9kwz9mXwM456cV49Q8-31" value="contract_down_payment  numeric(18,5)" style="shape=partialRectangle;overflow=hidden;connectable=0;fillColor=none;top=0;left=0;bottom=0;right=0;align=left;spacingLeft=6;" parent="bq9kwz9mXwM456cV49Q8-29" vertex="1">
          <mxGeometry x="30" width="350" height="30" as="geometry">
            <mxRectangle width="350" height="30" as="alternateBounds" />
          </mxGeometry>
        </mxCell>
        <mxCell id="bq9kwz9mXwM456cV49Q8-94" value="" style="shape=partialRectangle;collapsible=0;dropTarget=0;pointerEvents=0;fillColor=none;points=[[0,0.5],[1,0.5]];portConstraint=eastwest;top=0;left=0;right=0;bottom=0;" parent="Lgd85yXxA8p3wqPTsEd0-1" vertex="1">
          <mxGeometry y="330" width="380" height="30" as="geometry" />
        </mxCell>
        <mxCell id="bq9kwz9mXwM456cV49Q8-95" value="" style="shape=partialRectangle;overflow=hidden;connectable=0;fillColor=none;top=0;left=0;bottom=0;right=0;" parent="bq9kwz9mXwM456cV49Q8-94" vertex="1">
          <mxGeometry width="30" height="30" as="geometry">
            <mxRectangle width="30" height="30" as="alternateBounds" />
          </mxGeometry>
        </mxCell>
        <mxCell id="bq9kwz9mXwM456cV49Q8-96" value="contract_financed_amount  numeric(18,5)" style="shape=partialRectangle;overflow=hidden;connectable=0;fillColor=none;top=0;left=0;bottom=0;right=0;align=left;spacingLeft=6;" parent="bq9kwz9mXwM456cV49Q8-94" vertex="1">
          <mxGeometry x="30" width="350" height="30" as="geometry">
            <mxRectangle width="350" height="30" as="alternateBounds" />
          </mxGeometry>
        </mxCell>
        <mxCell id="bq9kwz9mXwM456cV49Q8-97" value="" style="shape=partialRectangle;collapsible=0;dropTarget=0;pointerEvents=0;fillColor=none;points=[[0,0.5],[1,0.5]];portConstraint=eastwest;top=0;left=0;right=0;bottom=0;" parent="Lgd85yXxA8p3wqPTsEd0-1" vertex="1">
          <mxGeometry y="360" width="380" height="30" as="geometry" />
        </mxCell>
        <mxCell id="bq9kwz9mXwM456cV49Q8-98" value="" style="shape=partialRectangle;overflow=hidden;connectable=0;fillColor=none;top=0;left=0;bottom=0;right=0;" parent="bq9kwz9mXwM456cV49Q8-97" vertex="1">
          <mxGeometry width="30" height="30" as="geometry">
            <mxRectangle width="30" height="30" as="alternateBounds" />
          </mxGeometry>
        </mxCell>
        <mxCell id="bq9kwz9mXwM456cV49Q8-99" value="contract_installment_amount  numeric(18,5)" style="shape=partialRectangle;overflow=hidden;connectable=0;fillColor=none;top=0;left=0;bottom=0;right=0;align=left;spacingLeft=6;" parent="bq9kwz9mXwM456cV49Q8-97" vertex="1">
          <mxGeometry x="30" width="350" height="30" as="geometry">
            <mxRectangle width="350" height="30" as="alternateBounds" />
          </mxGeometry>
        </mxCell>
        <mxCell id="bq9kwz9mXwM456cV49Q8-100" value="" style="shape=partialRectangle;collapsible=0;dropTarget=0;pointerEvents=0;fillColor=none;points=[[0,0.5],[1,0.5]];portConstraint=eastwest;top=0;left=0;right=0;bottom=0;" parent="Lgd85yXxA8p3wqPTsEd0-1" vertex="1">
          <mxGeometry y="390" width="380" height="30" as="geometry" />
        </mxCell>
        <mxCell id="bq9kwz9mXwM456cV49Q8-101" value="" style="shape=partialRectangle;overflow=hidden;connectable=0;fillColor=none;top=0;left=0;bottom=0;right=0;" parent="bq9kwz9mXwM456cV49Q8-100" vertex="1">
          <mxGeometry width="30" height="30" as="geometry">
            <mxRectangle width="30" height="30" as="alternateBounds" />
          </mxGeometry>
        </mxCell>
        <mxCell id="bq9kwz9mXwM456cV49Q8-102" value="contract_status  varchar(50)" style="shape=partialRectangle;overflow=hidden;connectable=0;fillColor=none;top=0;left=0;bottom=0;right=0;align=left;spacingLeft=6;" parent="bq9kwz9mXwM456cV49Q8-100" vertex="1">
          <mxGeometry x="30" width="350" height="30" as="geometry">
            <mxRectangle width="350" height="30" as="alternateBounds" />
          </mxGeometry>
        </mxCell>
        <mxCell id="bq9kwz9mXwM456cV49Q8-103" value="" style="shape=partialRectangle;collapsible=0;dropTarget=0;pointerEvents=0;fillColor=none;points=[[0,0.5],[1,0.5]];portConstraint=eastwest;top=0;left=0;right=0;bottom=0;" parent="Lgd85yXxA8p3wqPTsEd0-1" vertex="1">
          <mxGeometry y="420" width="380" height="30" as="geometry" />
        </mxCell>
        <mxCell id="bq9kwz9mXwM456cV49Q8-104" value="" style="shape=partialRectangle;overflow=hidden;connectable=0;fillColor=none;top=0;left=0;bottom=0;right=0;" parent="bq9kwz9mXwM456cV49Q8-103" vertex="1">
          <mxGeometry width="30" height="30" as="geometry">
            <mxRectangle width="30" height="30" as="alternateBounds" />
          </mxGeometry>
        </mxCell>
        <mxCell id="bq9kwz9mXwM456cV49Q8-105" value="contract_live_status  char(1)" style="shape=partialRectangle;overflow=hidden;connectable=0;fillColor=none;top=0;left=0;bottom=0;right=0;align=left;spacingLeft=6;" parent="bq9kwz9mXwM456cV49Q8-103" vertex="1">
          <mxGeometry x="30" width="350" height="30" as="geometry">
            <mxRectangle width="350" height="30" as="alternateBounds" />
          </mxGeometry>
        </mxCell>
        <mxCell id="jUZU6OPxXkP7sXgpjkYv-67" value="" style="shape=partialRectangle;collapsible=0;dropTarget=0;pointerEvents=0;fillColor=none;points=[[0,0.5],[1,0.5]];portConstraint=eastwest;top=0;left=0;right=0;bottom=0;" vertex="1" parent="Lgd85yXxA8p3wqPTsEd0-1">
          <mxGeometry y="450" width="380" height="30" as="geometry" />
        </mxCell>
        <mxCell id="jUZU6OPxXkP7sXgpjkYv-68" value="" style="shape=partialRectangle;overflow=hidden;connectable=0;fillColor=none;top=0;left=0;bottom=0;right=0;" vertex="1" parent="jUZU6OPxXkP7sXgpjkYv-67">
          <mxGeometry width="30" height="30" as="geometry">
            <mxRectangle width="30" height="30" as="alternateBounds" />
          </mxGeometry>
        </mxCell>
        <mxCell id="jUZU6OPxXkP7sXgpjkYv-69" value="contract_balloon_percentage  float8" style="shape=partialRectangle;overflow=hidden;connectable=0;fillColor=none;top=0;left=0;bottom=0;right=0;align=left;spacingLeft=6;" vertex="1" parent="jUZU6OPxXkP7sXgpjkYv-67">
          <mxGeometry x="30" width="350" height="30" as="geometry">
            <mxRectangle width="350" height="30" as="alternateBounds" />
          </mxGeometry>
        </mxCell>
        <mxCell id="jUZU6OPxXkP7sXgpjkYv-70" value="" style="shape=partialRectangle;collapsible=0;dropTarget=0;pointerEvents=0;fillColor=none;points=[[0,0.5],[1,0.5]];portConstraint=eastwest;top=0;left=0;right=0;bottom=0;" vertex="1" parent="Lgd85yXxA8p3wqPTsEd0-1">
          <mxGeometry y="480" width="380" height="30" as="geometry" />
        </mxCell>
        <mxCell id="jUZU6OPxXkP7sXgpjkYv-71" value="" style="shape=partialRectangle;overflow=hidden;connectable=0;fillColor=none;top=0;left=0;bottom=0;right=0;" vertex="1" parent="jUZU6OPxXkP7sXgpjkYv-70">
          <mxGeometry width="30" height="30" as="geometry">
            <mxRectangle width="30" height="30" as="alternateBounds" />
          </mxGeometry>
        </mxCell>
        <mxCell id="jUZU6OPxXkP7sXgpjkYv-72" value="customer_name  vahrchar(255)" style="shape=partialRectangle;overflow=hidden;connectable=0;fillColor=none;top=0;left=0;bottom=0;right=0;align=left;spacingLeft=6;" vertex="1" parent="jUZU6OPxXkP7sXgpjkYv-70">
          <mxGeometry x="30" width="350" height="30" as="geometry">
            <mxRectangle width="350" height="30" as="alternateBounds" />
          </mxGeometry>
        </mxCell>
        <mxCell id="jUZU6OPxXkP7sXgpjkYv-73" value="" style="shape=partialRectangle;collapsible=0;dropTarget=0;pointerEvents=0;fillColor=none;points=[[0,0.5],[1,0.5]];portConstraint=eastwest;top=0;left=0;right=0;bottom=0;" vertex="1" parent="Lgd85yXxA8p3wqPTsEd0-1">
          <mxGeometry y="510" width="380" height="30" as="geometry" />
        </mxCell>
        <mxCell id="jUZU6OPxXkP7sXgpjkYv-74" value="" style="shape=partialRectangle;overflow=hidden;connectable=0;fillColor=none;top=0;left=0;bottom=0;right=0;" vertex="1" parent="jUZU6OPxXkP7sXgpjkYv-73">
          <mxGeometry width="30" height="30" as="geometry">
            <mxRectangle width="30" height="30" as="alternateBounds" />
          </mxGeometry>
        </mxCell>
        <mxCell id="jUZU6OPxXkP7sXgpjkYv-75" value="customer_mobile_number  varchar(200)" style="shape=partialRectangle;overflow=hidden;connectable=0;fillColor=none;top=0;left=0;bottom=0;right=0;align=left;spacingLeft=6;" vertex="1" parent="jUZU6OPxXkP7sXgpjkYv-73">
          <mxGeometry x="30" width="350" height="30" as="geometry">
            <mxRectangle width="350" height="30" as="alternateBounds" />
          </mxGeometry>
        </mxCell>
        <mxCell id="jUZU6OPxXkP7sXgpjkYv-76" value="" style="shape=partialRectangle;collapsible=0;dropTarget=0;pointerEvents=0;fillColor=none;points=[[0,0.5],[1,0.5]];portConstraint=eastwest;top=0;left=0;right=0;bottom=0;" vertex="1" parent="Lgd85yXxA8p3wqPTsEd0-1">
          <mxGeometry y="540" width="380" height="30" as="geometry" />
        </mxCell>
        <mxCell id="jUZU6OPxXkP7sXgpjkYv-77" value="" style="shape=partialRectangle;overflow=hidden;connectable=0;fillColor=none;top=0;left=0;bottom=0;right=0;" vertex="1" parent="jUZU6OPxXkP7sXgpjkYv-76">
          <mxGeometry width="30" height="30" as="geometry">
            <mxRectangle width="30" height="30" as="alternateBounds" />
          </mxGeometry>
        </mxCell>
        <mxCell id="jUZU6OPxXkP7sXgpjkYv-78" value="customer_gender  varchar(10)" style="shape=partialRectangle;overflow=hidden;connectable=0;fillColor=none;top=0;left=0;bottom=0;right=0;align=left;spacingLeft=6;" vertex="1" parent="jUZU6OPxXkP7sXgpjkYv-76">
          <mxGeometry x="30" width="350" height="30" as="geometry">
            <mxRectangle width="350" height="30" as="alternateBounds" />
          </mxGeometry>
        </mxCell>
        <mxCell id="jUZU6OPxXkP7sXgpjkYv-79" value="" style="shape=partialRectangle;collapsible=0;dropTarget=0;pointerEvents=0;fillColor=none;points=[[0,0.5],[1,0.5]];portConstraint=eastwest;top=0;left=0;right=0;bottom=0;" vertex="1" parent="Lgd85yXxA8p3wqPTsEd0-1">
          <mxGeometry y="570" width="380" height="30" as="geometry" />
        </mxCell>
        <mxCell id="jUZU6OPxXkP7sXgpjkYv-80" value="" style="shape=partialRectangle;overflow=hidden;connectable=0;fillColor=none;top=0;left=0;bottom=0;right=0;" vertex="1" parent="jUZU6OPxXkP7sXgpjkYv-79">
          <mxGeometry width="30" height="30" as="geometry">
            <mxRectangle width="30" height="30" as="alternateBounds" />
          </mxGeometry>
        </mxCell>
        <mxCell id="jUZU6OPxXkP7sXgpjkYv-81" value="asset_brand  varchar(100)" style="shape=partialRectangle;overflow=hidden;connectable=0;fillColor=none;top=0;left=0;bottom=0;right=0;align=left;spacingLeft=6;" vertex="1" parent="jUZU6OPxXkP7sXgpjkYv-79">
          <mxGeometry x="30" width="350" height="30" as="geometry">
            <mxRectangle width="350" height="30" as="alternateBounds" />
          </mxGeometry>
        </mxCell>
        <mxCell id="jUZU6OPxXkP7sXgpjkYv-82" value="" style="shape=partialRectangle;collapsible=0;dropTarget=0;pointerEvents=0;fillColor=none;points=[[0,0.5],[1,0.5]];portConstraint=eastwest;top=0;left=0;right=0;bottom=0;" vertex="1" parent="Lgd85yXxA8p3wqPTsEd0-1">
          <mxGeometry y="600" width="380" height="30" as="geometry" />
        </mxCell>
        <mxCell id="jUZU6OPxXkP7sXgpjkYv-83" value="" style="shape=partialRectangle;overflow=hidden;connectable=0;fillColor=none;top=0;left=0;bottom=0;right=0;" vertex="1" parent="jUZU6OPxXkP7sXgpjkYv-82">
          <mxGeometry width="30" height="30" as="geometry">
            <mxRectangle width="30" height="30" as="alternateBounds" />
          </mxGeometry>
        </mxCell>
        <mxCell id="jUZU6OPxXkP7sXgpjkYv-84" value="asset_type  varchar(100)" style="shape=partialRectangle;overflow=hidden;connectable=0;fillColor=none;top=0;left=0;bottom=0;right=0;align=left;spacingLeft=6;" vertex="1" parent="jUZU6OPxXkP7sXgpjkYv-82">
          <mxGeometry x="30" width="350" height="30" as="geometry">
            <mxRectangle width="350" height="30" as="alternateBounds" />
          </mxGeometry>
        </mxCell>
        <mxCell id="jUZU6OPxXkP7sXgpjkYv-85" value="" style="shape=partialRectangle;collapsible=0;dropTarget=0;pointerEvents=0;fillColor=none;points=[[0,0.5],[1,0.5]];portConstraint=eastwest;top=0;left=0;right=0;bottom=0;" vertex="1" parent="Lgd85yXxA8p3wqPTsEd0-1">
          <mxGeometry y="630" width="380" height="30" as="geometry" />
        </mxCell>
        <mxCell id="jUZU6OPxXkP7sXgpjkYv-86" value="IDX" style="shape=partialRectangle;overflow=hidden;connectable=0;fillColor=none;top=0;left=0;bottom=0;right=0;" vertex="1" parent="jUZU6OPxXkP7sXgpjkYv-85">
          <mxGeometry width="30" height="30" as="geometry">
            <mxRectangle width="30" height="30" as="alternateBounds" />
          </mxGeometry>
        </mxCell>
        <mxCell id="jUZU6OPxXkP7sXgpjkYv-87" value="asset_model  varchar(100)" style="shape=partialRectangle;overflow=hidden;connectable=0;fillColor=none;top=0;left=0;bottom=0;right=0;align=left;spacingLeft=6;" vertex="1" parent="jUZU6OPxXkP7sXgpjkYv-85">
          <mxGeometry x="30" width="350" height="30" as="geometry">
            <mxRectangle width="350" height="30" as="alternateBounds" />
          </mxGeometry>
        </mxCell>
        <mxCell id="jUZU6OPxXkP7sXgpjkYv-88" value="" style="shape=partialRectangle;collapsible=0;dropTarget=0;pointerEvents=0;fillColor=none;points=[[0,0.5],[1,0.5]];portConstraint=eastwest;top=0;left=0;right=0;bottom=0;" vertex="1" parent="Lgd85yXxA8p3wqPTsEd0-1">
          <mxGeometry y="660" width="380" height="30" as="geometry" />
        </mxCell>
        <mxCell id="jUZU6OPxXkP7sXgpjkYv-89" value="" style="shape=partialRectangle;overflow=hidden;connectable=0;fillColor=none;top=0;left=0;bottom=0;right=0;" vertex="1" parent="jUZU6OPxXkP7sXgpjkYv-88">
          <mxGeometry width="30" height="30" as="geometry">
            <mxRectangle width="30" height="30" as="alternateBounds" />
          </mxGeometry>
        </mxCell>
        <mxCell id="jUZU6OPxXkP7sXgpjkYv-90" value="asset_vin  varchar(50)" style="shape=partialRectangle;overflow=hidden;connectable=0;fillColor=none;top=0;left=0;bottom=0;right=0;align=left;spacingLeft=6;" vertex="1" parent="jUZU6OPxXkP7sXgpjkYv-88">
          <mxGeometry x="30" width="350" height="30" as="geometry">
            <mxRectangle width="350" height="30" as="alternateBounds" />
          </mxGeometry>
        </mxCell>
        <mxCell id="jUZU6OPxXkP7sXgpjkYv-91" value="" style="shape=partialRectangle;collapsible=0;dropTarget=0;pointerEvents=0;fillColor=none;points=[[0,0.5],[1,0.5]];portConstraint=eastwest;top=0;left=0;right=0;bottom=0;" vertex="1" parent="Lgd85yXxA8p3wqPTsEd0-1">
          <mxGeometry y="690" width="380" height="30" as="geometry" />
        </mxCell>
        <mxCell id="jUZU6OPxXkP7sXgpjkYv-92" value="" style="shape=partialRectangle;overflow=hidden;connectable=0;fillColor=none;top=0;left=0;bottom=0;right=0;" vertex="1" parent="jUZU6OPxXkP7sXgpjkYv-91">
          <mxGeometry width="30" height="30" as="geometry">
            <mxRectangle width="30" height="30" as="alternateBounds" />
          </mxGeometry>
        </mxCell>
        <mxCell id="jUZU6OPxXkP7sXgpjkYv-93" value="asset_vehicle_cost_amount  numeric(18,5)" style="shape=partialRectangle;overflow=hidden;connectable=0;fillColor=none;top=0;left=0;bottom=0;right=0;align=left;spacingLeft=6;" vertex="1" parent="jUZU6OPxXkP7sXgpjkYv-91">
          <mxGeometry x="30" width="350" height="30" as="geometry">
            <mxRectangle width="350" height="30" as="alternateBounds" />
          </mxGeometry>
        </mxCell>
        <mxCell id="jUZU6OPxXkP7sXgpjkYv-94" value="" style="shape=partialRectangle;collapsible=0;dropTarget=0;pointerEvents=0;fillColor=none;points=[[0,0.5],[1,0.5]];portConstraint=eastwest;top=0;left=0;right=0;bottom=0;" vertex="1" parent="Lgd85yXxA8p3wqPTsEd0-1">
          <mxGeometry y="720" width="380" height="30" as="geometry" />
        </mxCell>
        <mxCell id="jUZU6OPxXkP7sXgpjkYv-95" value="" style="shape=partialRectangle;overflow=hidden;connectable=0;fillColor=none;top=0;left=0;bottom=0;right=0;" vertex="1" parent="jUZU6OPxXkP7sXgpjkYv-94">
          <mxGeometry width="30" height="30" as="geometry">
            <mxRectangle width="30" height="30" as="alternateBounds" />
          </mxGeometry>
        </mxCell>
        <mxCell id="jUZU6OPxXkP7sXgpjkYv-96" value="asset_class  varchar(100)" style="shape=partialRectangle;overflow=hidden;connectable=0;fillColor=none;top=0;left=0;bottom=0;right=0;align=left;spacingLeft=6;" vertex="1" parent="jUZU6OPxXkP7sXgpjkYv-94">
          <mxGeometry x="30" width="350" height="30" as="geometry">
            <mxRectangle width="350" height="30" as="alternateBounds" />
          </mxGeometry>
        </mxCell>
        <mxCell id="jUZU6OPxXkP7sXgpjkYv-97" value="" style="shape=partialRectangle;collapsible=0;dropTarget=0;pointerEvents=0;fillColor=none;points=[[0,0.5],[1,0.5]];portConstraint=eastwest;top=0;left=0;right=0;bottom=0;" vertex="1" parent="Lgd85yXxA8p3wqPTsEd0-1">
          <mxGeometry y="750" width="380" height="30" as="geometry" />
        </mxCell>
        <mxCell id="jUZU6OPxXkP7sXgpjkYv-98" value="" style="shape=partialRectangle;overflow=hidden;connectable=0;fillColor=none;top=0;left=0;bottom=0;right=0;" vertex="1" parent="jUZU6OPxXkP7sXgpjkYv-97">
          <mxGeometry width="30" height="30" as="geometry">
            <mxRectangle width="30" height="30" as="alternateBounds" />
          </mxGeometry>
        </mxCell>
        <mxCell id="jUZU6OPxXkP7sXgpjkYv-99" value="asset_model_year  int2" style="shape=partialRectangle;overflow=hidden;connectable=0;fillColor=none;top=0;left=0;bottom=0;right=0;align=left;spacingLeft=6;" vertex="1" parent="jUZU6OPxXkP7sXgpjkYv-97">
          <mxGeometry x="30" width="350" height="30" as="geometry">
            <mxRectangle width="350" height="30" as="alternateBounds" />
          </mxGeometry>
        </mxCell>
        <mxCell id="jUZU6OPxXkP7sXgpjkYv-100" value="" style="shape=partialRectangle;collapsible=0;dropTarget=0;pointerEvents=0;fillColor=none;points=[[0,0.5],[1,0.5]];portConstraint=eastwest;top=0;left=0;right=0;bottom=0;" vertex="1" parent="Lgd85yXxA8p3wqPTsEd0-1">
          <mxGeometry y="780" width="380" height="30" as="geometry" />
        </mxCell>
        <mxCell id="jUZU6OPxXkP7sXgpjkYv-101" value="" style="shape=partialRectangle;overflow=hidden;connectable=0;fillColor=none;top=0;left=0;bottom=0;right=0;" vertex="1" parent="jUZU6OPxXkP7sXgpjkYv-100">
          <mxGeometry width="30" height="30" as="geometry">
            <mxRectangle width="30" height="30" as="alternateBounds" />
          </mxGeometry>
        </mxCell>
        <mxCell id="jUZU6OPxXkP7sXgpjkYv-102" value="dealer_number  varchar(50)" style="shape=partialRectangle;overflow=hidden;connectable=0;fillColor=none;top=0;left=0;bottom=0;right=0;align=left;spacingLeft=6;" vertex="1" parent="jUZU6OPxXkP7sXgpjkYv-100">
          <mxGeometry x="30" width="350" height="30" as="geometry">
            <mxRectangle width="350" height="30" as="alternateBounds" />
          </mxGeometry>
        </mxCell>
        <mxCell id="jUZU6OPxXkP7sXgpjkYv-103" value="" style="shape=partialRectangle;collapsible=0;dropTarget=0;pointerEvents=0;fillColor=none;points=[[0,0.5],[1,0.5]];portConstraint=eastwest;top=0;left=0;right=0;bottom=0;" vertex="1" parent="Lgd85yXxA8p3wqPTsEd0-1">
          <mxGeometry y="810" width="380" height="30" as="geometry" />
        </mxCell>
        <mxCell id="jUZU6OPxXkP7sXgpjkYv-104" value="" style="shape=partialRectangle;overflow=hidden;connectable=0;fillColor=none;top=0;left=0;bottom=0;right=0;" vertex="1" parent="jUZU6OPxXkP7sXgpjkYv-103">
          <mxGeometry width="30" height="30" as="geometry">
            <mxRectangle width="30" height="30" as="alternateBounds" />
          </mxGeometry>
        </mxCell>
        <mxCell id="jUZU6OPxXkP7sXgpjkYv-105" value="contract_terms_remaining  int2" style="shape=partialRectangle;overflow=hidden;connectable=0;fillColor=none;top=0;left=0;bottom=0;right=0;align=left;spacingLeft=6;" vertex="1" parent="jUZU6OPxXkP7sXgpjkYv-103">
          <mxGeometry x="30" width="350" height="30" as="geometry">
            <mxRectangle width="350" height="30" as="alternateBounds" />
          </mxGeometry>
        </mxCell>
        <mxCell id="jUZU6OPxXkP7sXgpjkYv-106" value="" style="shape=partialRectangle;collapsible=0;dropTarget=0;pointerEvents=0;fillColor=none;points=[[0,0.5],[1,0.5]];portConstraint=eastwest;top=0;left=0;right=0;bottom=0;" vertex="1" parent="Lgd85yXxA8p3wqPTsEd0-1">
          <mxGeometry y="840" width="380" height="30" as="geometry" />
        </mxCell>
        <mxCell id="jUZU6OPxXkP7sXgpjkYv-107" value="" style="shape=partialRectangle;overflow=hidden;connectable=0;fillColor=none;top=0;left=0;bottom=0;right=0;" vertex="1" parent="jUZU6OPxXkP7sXgpjkYv-106">
          <mxGeometry width="30" height="30" as="geometry">
            <mxRectangle width="30" height="30" as="alternateBounds" />
          </mxGeometry>
        </mxCell>
        <mxCell id="jUZU6OPxXkP7sXgpjkYv-108" value="contract_installment_amount_due_to_date  numeric(18,5)" style="shape=partialRectangle;overflow=hidden;connectable=0;fillColor=none;top=0;left=0;bottom=0;right=0;align=left;spacingLeft=6;" vertex="1" parent="jUZU6OPxXkP7sXgpjkYv-106">
          <mxGeometry x="30" width="350" height="30" as="geometry">
            <mxRectangle width="350" height="30" as="alternateBounds" />
          </mxGeometry>
        </mxCell>
        <mxCell id="jUZU6OPxXkP7sXgpjkYv-109" value="" style="shape=partialRectangle;collapsible=0;dropTarget=0;pointerEvents=0;fillColor=none;points=[[0,0.5],[1,0.5]];portConstraint=eastwest;top=0;left=0;right=0;bottom=0;" vertex="1" parent="Lgd85yXxA8p3wqPTsEd0-1">
          <mxGeometry y="870" width="380" height="30" as="geometry" />
        </mxCell>
        <mxCell id="jUZU6OPxXkP7sXgpjkYv-110" value="" style="shape=partialRectangle;overflow=hidden;connectable=0;fillColor=none;top=0;left=0;bottom=0;right=0;" vertex="1" parent="jUZU6OPxXkP7sXgpjkYv-109">
          <mxGeometry width="30" height="30" as="geometry">
            <mxRectangle width="30" height="30" as="alternateBounds" />
          </mxGeometry>
        </mxCell>
        <mxCell id="jUZU6OPxXkP7sXgpjkYv-111" value="contract_outstanding_installment_interest  numeric(18,5)" style="shape=partialRectangle;overflow=hidden;connectable=0;fillColor=none;top=0;left=0;bottom=0;right=0;align=left;spacingLeft=6;" vertex="1" parent="jUZU6OPxXkP7sXgpjkYv-109">
          <mxGeometry x="30" width="350" height="30" as="geometry">
            <mxRectangle width="350" height="30" as="alternateBounds" />
          </mxGeometry>
        </mxCell>
        <mxCell id="jUZU6OPxXkP7sXgpjkYv-112" value="" style="shape=partialRectangle;collapsible=0;dropTarget=0;pointerEvents=0;fillColor=none;points=[[0,0.5],[1,0.5]];portConstraint=eastwest;top=0;left=0;right=0;bottom=0;" vertex="1" parent="Lgd85yXxA8p3wqPTsEd0-1">
          <mxGeometry y="900" width="380" height="30" as="geometry" />
        </mxCell>
        <mxCell id="jUZU6OPxXkP7sXgpjkYv-113" value="" style="shape=partialRectangle;overflow=hidden;connectable=0;fillColor=none;top=0;left=0;bottom=0;right=0;" vertex="1" parent="jUZU6OPxXkP7sXgpjkYv-112">
          <mxGeometry width="30" height="30" as="geometry">
            <mxRectangle width="30" height="30" as="alternateBounds" />
          </mxGeometry>
        </mxCell>
        <mxCell id="jUZU6OPxXkP7sXgpjkYv-114" value="contract_total_installment_amount  numeric(18,5)" style="shape=partialRectangle;overflow=hidden;connectable=0;fillColor=none;top=0;left=0;bottom=0;right=0;align=left;spacingLeft=6;" vertex="1" parent="jUZU6OPxXkP7sXgpjkYv-112">
          <mxGeometry x="30" width="350" height="30" as="geometry">
            <mxRectangle width="350" height="30" as="alternateBounds" />
          </mxGeometry>
        </mxCell>
        <mxCell id="jUZU6OPxXkP7sXgpjkYv-115" value="" style="shape=partialRectangle;collapsible=0;dropTarget=0;pointerEvents=0;fillColor=none;points=[[0,0.5],[1,0.5]];portConstraint=eastwest;top=0;left=0;right=0;bottom=0;" vertex="1" parent="Lgd85yXxA8p3wqPTsEd0-1">
          <mxGeometry y="930" width="380" height="30" as="geometry" />
        </mxCell>
        <mxCell id="jUZU6OPxXkP7sXgpjkYv-116" value="" style="shape=partialRectangle;overflow=hidden;connectable=0;fillColor=none;top=0;left=0;bottom=0;right=0;" vertex="1" parent="jUZU6OPxXkP7sXgpjkYv-115">
          <mxGeometry width="30" height="30" as="geometry">
            <mxRectangle width="30" height="30" as="alternateBounds" />
          </mxGeometry>
        </mxCell>
        <mxCell id="jUZU6OPxXkP7sXgpjkYv-117" value="contract_outstanding_principal_amount  numeric(18,5)" style="shape=partialRectangle;overflow=hidden;connectable=0;fillColor=none;top=0;left=0;bottom=0;right=0;align=left;spacingLeft=6;" vertex="1" parent="jUZU6OPxXkP7sXgpjkYv-115">
          <mxGeometry x="30" width="350" height="30" as="geometry">
            <mxRectangle width="350" height="30" as="alternateBounds" />
          </mxGeometry>
        </mxCell>
        <mxCell id="jUZU6OPxXkP7sXgpjkYv-118" value="" style="shape=partialRectangle;collapsible=0;dropTarget=0;pointerEvents=0;fillColor=none;points=[[0,0.5],[1,0.5]];portConstraint=eastwest;top=0;left=0;right=0;bottom=0;" vertex="1" parent="Lgd85yXxA8p3wqPTsEd0-1">
          <mxGeometry y="960" width="380" height="30" as="geometry" />
        </mxCell>
        <mxCell id="jUZU6OPxXkP7sXgpjkYv-119" value="" style="shape=partialRectangle;overflow=hidden;connectable=0;fillColor=none;top=0;left=0;bottom=0;right=0;" vertex="1" parent="jUZU6OPxXkP7sXgpjkYv-118">
          <mxGeometry width="30" height="30" as="geometry">
            <mxRectangle width="30" height="30" as="alternateBounds" />
          </mxGeometry>
        </mxCell>
        <mxCell id="jUZU6OPxXkP7sXgpjkYv-120" value="contract_balloon_amount  numeric(18,5)" style="shape=partialRectangle;overflow=hidden;connectable=0;fillColor=none;top=0;left=0;bottom=0;right=0;align=left;spacingLeft=6;" vertex="1" parent="jUZU6OPxXkP7sXgpjkYv-118">
          <mxGeometry x="30" width="350" height="30" as="geometry">
            <mxRectangle width="350" height="30" as="alternateBounds" />
          </mxGeometry>
        </mxCell>
        <mxCell id="jUZU6OPxXkP7sXgpjkYv-121" value="" style="shape=partialRectangle;collapsible=0;dropTarget=0;pointerEvents=0;fillColor=none;points=[[0,0.5],[1,0.5]];portConstraint=eastwest;top=0;left=0;right=0;bottom=0;" vertex="1" parent="Lgd85yXxA8p3wqPTsEd0-1">
          <mxGeometry y="990" width="380" height="30" as="geometry" />
        </mxCell>
        <mxCell id="jUZU6OPxXkP7sXgpjkYv-122" value="" style="shape=partialRectangle;overflow=hidden;connectable=0;fillColor=none;top=0;left=0;bottom=0;right=0;" vertex="1" parent="jUZU6OPxXkP7sXgpjkYv-121">
          <mxGeometry width="30" height="30" as="geometry">
            <mxRectangle width="30" height="30" as="alternateBounds" />
          </mxGeometry>
        </mxCell>
        <mxCell id="jUZU6OPxXkP7sXgpjkYv-123" value="customer_address  varchar(300)" style="shape=partialRectangle;overflow=hidden;connectable=0;fillColor=none;top=0;left=0;bottom=0;right=0;align=left;spacingLeft=6;" vertex="1" parent="jUZU6OPxXkP7sXgpjkYv-121">
          <mxGeometry x="30" width="350" height="30" as="geometry">
            <mxRectangle width="350" height="30" as="alternateBounds" />
          </mxGeometry>
        </mxCell>
        <mxCell id="jUZU6OPxXkP7sXgpjkYv-124" value="" style="shape=partialRectangle;collapsible=0;dropTarget=0;pointerEvents=0;fillColor=none;points=[[0,0.5],[1,0.5]];portConstraint=eastwest;top=0;left=0;right=0;bottom=0;" vertex="1" parent="Lgd85yXxA8p3wqPTsEd0-1">
          <mxGeometry y="1020" width="380" height="30" as="geometry" />
        </mxCell>
        <mxCell id="jUZU6OPxXkP7sXgpjkYv-125" value="" style="shape=partialRectangle;overflow=hidden;connectable=0;fillColor=none;top=0;left=0;bottom=0;right=0;" vertex="1" parent="jUZU6OPxXkP7sXgpjkYv-124">
          <mxGeometry width="30" height="30" as="geometry">
            <mxRectangle width="30" height="30" as="alternateBounds" />
          </mxGeometry>
        </mxCell>
        <mxCell id="jUZU6OPxXkP7sXgpjkYv-126" value="contract_total_principal  numeric(18,5)" style="shape=partialRectangle;overflow=hidden;connectable=0;fillColor=none;top=0;left=0;bottom=0;right=0;align=left;spacingLeft=6;" vertex="1" parent="jUZU6OPxXkP7sXgpjkYv-124">
          <mxGeometry x="30" width="350" height="30" as="geometry">
            <mxRectangle width="350" height="30" as="alternateBounds" />
          </mxGeometry>
        </mxCell>
        <mxCell id="jUZU6OPxXkP7sXgpjkYv-127" value="" style="shape=partialRectangle;collapsible=0;dropTarget=0;pointerEvents=0;fillColor=none;points=[[0,0.5],[1,0.5]];portConstraint=eastwest;top=0;left=0;right=0;bottom=0;" vertex="1" parent="Lgd85yXxA8p3wqPTsEd0-1">
          <mxGeometry y="1050" width="380" height="30" as="geometry" />
        </mxCell>
        <mxCell id="jUZU6OPxXkP7sXgpjkYv-128" value="" style="shape=partialRectangle;overflow=hidden;connectable=0;fillColor=none;top=0;left=0;bottom=0;right=0;" vertex="1" parent="jUZU6OPxXkP7sXgpjkYv-127">
          <mxGeometry width="30" height="30" as="geometry">
            <mxRectangle width="30" height="30" as="alternateBounds" />
          </mxGeometry>
        </mxCell>
        <mxCell id="jUZU6OPxXkP7sXgpjkYv-129" value="customer_date_of_birth  date" style="shape=partialRectangle;overflow=hidden;connectable=0;fillColor=none;top=0;left=0;bottom=0;right=0;align=left;spacingLeft=6;" vertex="1" parent="jUZU6OPxXkP7sXgpjkYv-127">
          <mxGeometry x="30" width="350" height="30" as="geometry">
            <mxRectangle width="350" height="30" as="alternateBounds" />
          </mxGeometry>
        </mxCell>
        <mxCell id="jUZU6OPxXkP7sXgpjkYv-130" value="" style="shape=partialRectangle;collapsible=0;dropTarget=0;pointerEvents=0;fillColor=none;points=[[0,0.5],[1,0.5]];portConstraint=eastwest;top=0;left=0;right=0;bottom=0;" vertex="1" parent="Lgd85yXxA8p3wqPTsEd0-1">
          <mxGeometry y="1080" width="380" height="30" as="geometry" />
        </mxCell>
        <mxCell id="jUZU6OPxXkP7sXgpjkYv-131" value="" style="shape=partialRectangle;overflow=hidden;connectable=0;fillColor=none;top=0;left=0;bottom=0;right=0;" vertex="1" parent="jUZU6OPxXkP7sXgpjkYv-130">
          <mxGeometry width="30" height="30" as="geometry">
            <mxRectangle width="30" height="30" as="alternateBounds" />
          </mxGeometry>
        </mxCell>
        <mxCell id="jUZU6OPxXkP7sXgpjkYv-132" value="dealer_name  varchar(200)" style="shape=partialRectangle;overflow=hidden;connectable=0;fillColor=none;top=0;left=0;bottom=0;right=0;align=left;spacingLeft=6;" vertex="1" parent="jUZU6OPxXkP7sXgpjkYv-130">
          <mxGeometry x="30" width="350" height="30" as="geometry">
            <mxRectangle width="350" height="30" as="alternateBounds" />
          </mxGeometry>
        </mxCell>
        <mxCell id="jUZU6OPxXkP7sXgpjkYv-134" value="" style="shape=partialRectangle;collapsible=0;dropTarget=0;pointerEvents=0;fillColor=none;points=[[0,0.5],[1,0.5]];portConstraint=eastwest;top=0;left=0;right=0;bottom=0;" vertex="1" parent="Lgd85yXxA8p3wqPTsEd0-1">
          <mxGeometry y="1110" width="380" height="30" as="geometry" />
        </mxCell>
        <mxCell id="jUZU6OPxXkP7sXgpjkYv-135" value="" style="shape=partialRectangle;overflow=hidden;connectable=0;fillColor=none;top=0;left=0;bottom=0;right=0;" vertex="1" parent="jUZU6OPxXkP7sXgpjkYv-134">
          <mxGeometry width="30" height="30" as="geometry">
            <mxRectangle width="30" height="30" as="alternateBounds" />
          </mxGeometry>
        </mxCell>
        <mxCell id="jUZU6OPxXkP7sXgpjkYv-136" value="contract_salesperson  varchar(20)" style="shape=partialRectangle;overflow=hidden;connectable=0;fillColor=none;top=0;left=0;bottom=0;right=0;align=left;spacingLeft=6;" vertex="1" parent="jUZU6OPxXkP7sXgpjkYv-134">
          <mxGeometry x="30" width="350" height="30" as="geometry">
            <mxRectangle width="350" height="30" as="alternateBounds" />
          </mxGeometry>
        </mxCell>
        <mxCell id="jUZU6OPxXkP7sXgpjkYv-137" value="" style="shape=partialRectangle;collapsible=0;dropTarget=0;pointerEvents=0;fillColor=none;points=[[0,0.5],[1,0.5]];portConstraint=eastwest;top=0;left=0;right=0;bottom=0;" vertex="1" parent="Lgd85yXxA8p3wqPTsEd0-1">
          <mxGeometry y="1140" width="380" height="30" as="geometry" />
        </mxCell>
        <mxCell id="jUZU6OPxXkP7sXgpjkYv-138" value="" style="shape=partialRectangle;overflow=hidden;connectable=0;fillColor=none;top=0;left=0;bottom=0;right=0;" vertex="1" parent="jUZU6OPxXkP7sXgpjkYv-137">
          <mxGeometry width="30" height="30" as="geometry">
            <mxRectangle width="30" height="30" as="alternateBounds" />
          </mxGeometry>
        </mxCell>
        <mxCell id="jUZU6OPxXkP7sXgpjkYv-139" value="customer_guarantor_name  varchar(100)" style="shape=partialRectangle;overflow=hidden;connectable=0;fillColor=none;top=0;left=0;bottom=0;right=0;align=left;spacingLeft=6;" vertex="1" parent="jUZU6OPxXkP7sXgpjkYv-137">
          <mxGeometry x="30" width="350" height="30" as="geometry">
            <mxRectangle width="350" height="30" as="alternateBounds" />
          </mxGeometry>
        </mxCell>
        <mxCell id="jUZU6OPxXkP7sXgpjkYv-140" value="" style="shape=partialRectangle;collapsible=0;dropTarget=0;pointerEvents=0;fillColor=none;points=[[0,0.5],[1,0.5]];portConstraint=eastwest;top=0;left=0;right=0;bottom=0;" vertex="1" parent="Lgd85yXxA8p3wqPTsEd0-1">
          <mxGeometry y="1170" width="380" height="30" as="geometry" />
        </mxCell>
        <mxCell id="jUZU6OPxXkP7sXgpjkYv-141" value="" style="shape=partialRectangle;overflow=hidden;connectable=0;fillColor=none;top=0;left=0;bottom=0;right=0;" vertex="1" parent="jUZU6OPxXkP7sXgpjkYv-140">
          <mxGeometry width="30" height="30" as="geometry">
            <mxRectangle width="30" height="30" as="alternateBounds" />
          </mxGeometry>
        </mxCell>
        <mxCell id="jUZU6OPxXkP7sXgpjkYv-142" value="contract_payment_mode  varchar(16)" style="shape=partialRectangle;overflow=hidden;connectable=0;fillColor=none;top=0;left=0;bottom=0;right=0;align=left;spacingLeft=6;" vertex="1" parent="jUZU6OPxXkP7sXgpjkYv-140">
          <mxGeometry x="30" width="350" height="30" as="geometry">
            <mxRectangle width="350" height="30" as="alternateBounds" />
          </mxGeometry>
        </mxCell>
        <mxCell id="jUZU6OPxXkP7sXgpjkYv-143" value="" style="shape=partialRectangle;collapsible=0;dropTarget=0;pointerEvents=0;fillColor=none;points=[[0,0.5],[1,0.5]];portConstraint=eastwest;top=0;left=0;right=0;bottom=0;" vertex="1" parent="Lgd85yXxA8p3wqPTsEd0-1">
          <mxGeometry y="1200" width="380" height="30" as="geometry" />
        </mxCell>
        <mxCell id="jUZU6OPxXkP7sXgpjkYv-144" value="" style="shape=partialRectangle;overflow=hidden;connectable=0;fillColor=none;top=0;left=0;bottom=0;right=0;" vertex="1" parent="jUZU6OPxXkP7sXgpjkYv-143">
          <mxGeometry width="30" height="30" as="geometry">
            <mxRectangle width="30" height="30" as="alternateBounds" />
          </mxGeometry>
        </mxCell>
        <mxCell id="jUZU6OPxXkP7sXgpjkYv-145" value="contract_termination_date  date" style="shape=partialRectangle;overflow=hidden;connectable=0;fillColor=none;top=0;left=0;bottom=0;right=0;align=left;spacingLeft=6;" vertex="1" parent="jUZU6OPxXkP7sXgpjkYv-143">
          <mxGeometry x="30" width="350" height="30" as="geometry">
            <mxRectangle width="350" height="30" as="alternateBounds" />
          </mxGeometry>
        </mxCell>
        <mxCell id="jUZU6OPxXkP7sXgpjkYv-146" value="" style="shape=partialRectangle;collapsible=0;dropTarget=0;pointerEvents=0;fillColor=none;points=[[0,0.5],[1,0.5]];portConstraint=eastwest;top=0;left=0;right=0;bottom=0;" vertex="1" parent="Lgd85yXxA8p3wqPTsEd0-1">
          <mxGeometry y="1230" width="380" height="30" as="geometry" />
        </mxCell>
        <mxCell id="jUZU6OPxXkP7sXgpjkYv-147" value="" style="shape=partialRectangle;overflow=hidden;connectable=0;fillColor=none;top=0;left=0;bottom=0;right=0;" vertex="1" parent="jUZU6OPxXkP7sXgpjkYv-146">
          <mxGeometry width="30" height="30" as="geometry">
            <mxRectangle width="30" height="30" as="alternateBounds" />
          </mxGeometry>
        </mxCell>
        <mxCell id="jUZU6OPxXkP7sXgpjkYv-148" value="product_type  varchar(15)" style="shape=partialRectangle;overflow=hidden;connectable=0;fillColor=none;top=0;left=0;bottom=0;right=0;align=left;spacingLeft=6;" vertex="1" parent="jUZU6OPxXkP7sXgpjkYv-146">
          <mxGeometry x="30" width="350" height="30" as="geometry">
            <mxRectangle width="350" height="30" as="alternateBounds" />
          </mxGeometry>
        </mxCell>
        <mxCell id="jUZU6OPxXkP7sXgpjkYv-149" value="" style="shape=partialRectangle;collapsible=0;dropTarget=0;pointerEvents=0;fillColor=none;points=[[0,0.5],[1,0.5]];portConstraint=eastwest;top=0;left=0;right=0;bottom=0;" vertex="1" parent="Lgd85yXxA8p3wqPTsEd0-1">
          <mxGeometry y="1260" width="380" height="30" as="geometry" />
        </mxCell>
        <mxCell id="jUZU6OPxXkP7sXgpjkYv-150" value="" style="shape=partialRectangle;overflow=hidden;connectable=0;fillColor=none;top=0;left=0;bottom=0;right=0;" vertex="1" parent="jUZU6OPxXkP7sXgpjkYv-149">
          <mxGeometry width="30" height="30" as="geometry">
            <mxRectangle width="30" height="30" as="alternateBounds" />
          </mxGeometry>
        </mxCell>
        <mxCell id="jUZU6OPxXkP7sXgpjkYv-151" value="asset_new_used  varchar(10)" style="shape=partialRectangle;overflow=hidden;connectable=0;fillColor=none;top=0;left=0;bottom=0;right=0;align=left;spacingLeft=6;" vertex="1" parent="jUZU6OPxXkP7sXgpjkYv-149">
          <mxGeometry x="30" width="350" height="30" as="geometry">
            <mxRectangle width="350" height="30" as="alternateBounds" />
          </mxGeometry>
        </mxCell>
        <mxCell id="jUZU6OPxXkP7sXgpjkYv-152" value="" style="shape=partialRectangle;collapsible=0;dropTarget=0;pointerEvents=0;fillColor=none;points=[[0,0.5],[1,0.5]];portConstraint=eastwest;top=0;left=0;right=0;bottom=0;" vertex="1" parent="Lgd85yXxA8p3wqPTsEd0-1">
          <mxGeometry y="1290" width="380" height="30" as="geometry" />
        </mxCell>
        <mxCell id="jUZU6OPxXkP7sXgpjkYv-153" value="" style="shape=partialRectangle;overflow=hidden;connectable=0;fillColor=none;top=0;left=0;bottom=0;right=0;" vertex="1" parent="jUZU6OPxXkP7sXgpjkYv-152">
          <mxGeometry width="30" height="30" as="geometry">
            <mxRectangle width="30" height="30" as="alternateBounds" />
          </mxGeometry>
        </mxCell>
        <mxCell id="jUZU6OPxXkP7sXgpjkYv-154" value="portfolio_type  varchar(10)" style="shape=partialRectangle;overflow=hidden;connectable=0;fillColor=none;top=0;left=0;bottom=0;right=0;align=left;spacingLeft=6;" vertex="1" parent="jUZU6OPxXkP7sXgpjkYv-152">
          <mxGeometry x="30" width="350" height="30" as="geometry">
            <mxRectangle width="350" height="30" as="alternateBounds" />
          </mxGeometry>
        </mxCell>
        <mxCell id="jUZU6OPxXkP7sXgpjkYv-155" value="" style="shape=partialRectangle;collapsible=0;dropTarget=0;pointerEvents=0;fillColor=none;points=[[0,0.5],[1,0.5]];portConstraint=eastwest;top=0;left=0;right=0;bottom=0;" vertex="1" parent="Lgd85yXxA8p3wqPTsEd0-1">
          <mxGeometry y="1320" width="380" height="30" as="geometry" />
        </mxCell>
        <mxCell id="jUZU6OPxXkP7sXgpjkYv-156" value="" style="shape=partialRectangle;overflow=hidden;connectable=0;fillColor=none;top=0;left=0;bottom=0;right=0;" vertex="1" parent="jUZU6OPxXkP7sXgpjkYv-155">
          <mxGeometry width="30" height="30" as="geometry">
            <mxRectangle width="30" height="30" as="alternateBounds" />
          </mxGeometry>
        </mxCell>
        <mxCell id="jUZU6OPxXkP7sXgpjkYv-157" value="modified_date  date" style="shape=partialRectangle;overflow=hidden;connectable=0;fillColor=none;top=0;left=0;bottom=0;right=0;align=left;spacingLeft=6;" vertex="1" parent="jUZU6OPxXkP7sXgpjkYv-155">
          <mxGeometry x="30" width="350" height="30" as="geometry">
            <mxRectangle width="350" height="30" as="alternateBounds" />
          </mxGeometry>
        </mxCell>
        <mxCell id="jUZU6OPxXkP7sXgpjkYv-159" value="" style="shape=partialRectangle;collapsible=0;dropTarget=0;pointerEvents=0;fillColor=none;points=[[0,0.5],[1,0.5]];portConstraint=eastwest;top=0;left=0;right=0;bottom=0;" vertex="1" parent="Lgd85yXxA8p3wqPTsEd0-1">
          <mxGeometry y="1350" width="380" height="30" as="geometry" />
        </mxCell>
        <mxCell id="jUZU6OPxXkP7sXgpjkYv-160" value="" style="shape=partialRectangle;overflow=hidden;connectable=0;fillColor=none;top=0;left=0;bottom=0;right=0;" vertex="1" parent="jUZU6OPxXkP7sXgpjkYv-159">
          <mxGeometry width="30" height="30" as="geometry">
            <mxRectangle width="30" height="30" as="alternateBounds" />
          </mxGeometry>
        </mxCell>
        <mxCell id="jUZU6OPxXkP7sXgpjkYv-161" value="mileage  int4" style="shape=partialRectangle;overflow=hidden;connectable=0;fillColor=none;top=0;left=0;bottom=0;right=0;align=left;spacingLeft=6;" vertex="1" parent="jUZU6OPxXkP7sXgpjkYv-159">
          <mxGeometry x="30" width="350" height="30" as="geometry">
            <mxRectangle width="350" height="30" as="alternateBounds" />
          </mxGeometry>
        </mxCell>
        <mxCell id="jUZU6OPxXkP7sXgpjkYv-162" value="" style="shape=partialRectangle;collapsible=0;dropTarget=0;pointerEvents=0;fillColor=none;points=[[0,0.5],[1,0.5]];portConstraint=eastwest;top=0;left=0;right=0;bottom=0;" vertex="1" parent="Lgd85yXxA8p3wqPTsEd0-1">
          <mxGeometry y="1380" width="380" height="30" as="geometry" />
        </mxCell>
        <mxCell id="jUZU6OPxXkP7sXgpjkYv-163" value="" style="shape=partialRectangle;overflow=hidden;connectable=0;fillColor=none;top=0;left=0;bottom=0;right=0;" vertex="1" parent="jUZU6OPxXkP7sXgpjkYv-162">
          <mxGeometry width="30" height="30" as="geometry">
            <mxRectangle width="30" height="30" as="alternateBounds" />
          </mxGeometry>
        </mxCell>
        <mxCell id="jUZU6OPxXkP7sXgpjkYv-164" value="customer_id_type  varchar(100)" style="shape=partialRectangle;overflow=hidden;connectable=0;fillColor=none;top=0;left=0;bottom=0;right=0;align=left;spacingLeft=6;" vertex="1" parent="jUZU6OPxXkP7sXgpjkYv-162">
          <mxGeometry x="30" width="350" height="30" as="geometry">
            <mxRectangle width="350" height="30" as="alternateBounds" />
          </mxGeometry>
        </mxCell>
        <mxCell id="jUZU6OPxXkP7sXgpjkYv-165" value="" style="shape=partialRectangle;collapsible=0;dropTarget=0;pointerEvents=0;fillColor=none;points=[[0,0.5],[1,0.5]];portConstraint=eastwest;top=0;left=0;right=0;bottom=0;" vertex="1" parent="Lgd85yXxA8p3wqPTsEd0-1">
          <mxGeometry y="1410" width="380" height="30" as="geometry" />
        </mxCell>
        <mxCell id="jUZU6OPxXkP7sXgpjkYv-166" value="" style="shape=partialRectangle;overflow=hidden;connectable=0;fillColor=none;top=0;left=0;bottom=0;right=0;" vertex="1" parent="jUZU6OPxXkP7sXgpjkYv-165">
          <mxGeometry width="30" height="30" as="geometry">
            <mxRectangle width="30" height="30" as="alternateBounds" />
          </mxGeometry>
        </mxCell>
        <mxCell id="jUZU6OPxXkP7sXgpjkYv-167" value="dealer_gssn_id  varchar(20)" style="shape=partialRectangle;overflow=hidden;connectable=0;fillColor=none;top=0;left=0;bottom=0;right=0;align=left;spacingLeft=6;" vertex="1" parent="jUZU6OPxXkP7sXgpjkYv-165">
          <mxGeometry x="30" width="350" height="30" as="geometry">
            <mxRectangle width="350" height="30" as="alternateBounds" />
          </mxGeometry>
        </mxCell>
        <mxCell id="jUZU6OPxXkP7sXgpjkYv-168" value="" style="shape=partialRectangle;collapsible=0;dropTarget=0;pointerEvents=0;fillColor=none;points=[[0,0.5],[1,0.5]];portConstraint=eastwest;top=0;left=0;right=0;bottom=0;" vertex="1" parent="Lgd85yXxA8p3wqPTsEd0-1">
          <mxGeometry y="1440" width="380" height="30" as="geometry" />
        </mxCell>
        <mxCell id="jUZU6OPxXkP7sXgpjkYv-169" value="" style="shape=partialRectangle;overflow=hidden;connectable=0;fillColor=none;top=0;left=0;bottom=0;right=0;" vertex="1" parent="jUZU6OPxXkP7sXgpjkYv-168">
          <mxGeometry width="30" height="30" as="geometry">
            <mxRectangle width="30" height="30" as="alternateBounds" />
          </mxGeometry>
        </mxCell>
        <mxCell id="jUZU6OPxXkP7sXgpjkYv-170" value="original_customer_mobile_number  varchar(200)" style="shape=partialRectangle;overflow=hidden;connectable=0;fillColor=none;top=0;left=0;bottom=0;right=0;align=left;spacingLeft=6;" vertex="1" parent="jUZU6OPxXkP7sXgpjkYv-168">
          <mxGeometry x="30" width="350" height="30" as="geometry">
            <mxRectangle width="350" height="30" as="alternateBounds" />
          </mxGeometry>
        </mxCell>
        <mxCell id="jUZU6OPxXkP7sXgpjkYv-171" value="" style="shape=partialRectangle;collapsible=0;dropTarget=0;pointerEvents=0;fillColor=none;points=[[0,0.5],[1,0.5]];portConstraint=eastwest;top=0;left=0;right=0;bottom=0;" vertex="1" parent="Lgd85yXxA8p3wqPTsEd0-1">
          <mxGeometry y="1470" width="380" height="30" as="geometry" />
        </mxCell>
        <mxCell id="jUZU6OPxXkP7sXgpjkYv-172" value="" style="shape=partialRectangle;overflow=hidden;connectable=0;fillColor=none;top=0;left=0;bottom=0;right=0;" vertex="1" parent="jUZU6OPxXkP7sXgpjkYv-171">
          <mxGeometry width="30" height="30" as="geometry">
            <mxRectangle width="30" height="30" as="alternateBounds" />
          </mxGeometry>
        </mxCell>
        <mxCell id="jUZU6OPxXkP7sXgpjkYv-173" value="asset_first_registration_date  date" style="shape=partialRectangle;overflow=hidden;connectable=0;fillColor=none;top=0;left=0;bottom=0;right=0;align=left;spacingLeft=6;" vertex="1" parent="jUZU6OPxXkP7sXgpjkYv-171">
          <mxGeometry x="30" width="350" height="30" as="geometry">
            <mxRectangle width="350" height="30" as="alternateBounds" />
          </mxGeometry>
        </mxCell>
        <mxCell id="jUZU6OPxXkP7sXgpjkYv-174" value="" style="shape=partialRectangle;collapsible=0;dropTarget=0;pointerEvents=0;fillColor=none;points=[[0,0.5],[1,0.5]];portConstraint=eastwest;top=0;left=0;right=0;bottom=0;" vertex="1" parent="Lgd85yXxA8p3wqPTsEd0-1">
          <mxGeometry y="1500" width="380" height="30" as="geometry" />
        </mxCell>
        <mxCell id="jUZU6OPxXkP7sXgpjkYv-175" value="" style="shape=partialRectangle;overflow=hidden;connectable=0;fillColor=none;top=0;left=0;bottom=0;right=0;" vertex="1" parent="jUZU6OPxXkP7sXgpjkYv-174">
          <mxGeometry width="30" height="30" as="geometry">
            <mxRectangle width="30" height="30" as="alternateBounds" />
          </mxGeometry>
        </mxCell>
        <mxCell id="jUZU6OPxXkP7sXgpjkYv-176" value="contract_down_payment_percentage  numeric(8,4)" style="shape=partialRectangle;overflow=hidden;connectable=0;fillColor=none;top=0;left=0;bottom=0;right=0;align=left;spacingLeft=6;" vertex="1" parent="jUZU6OPxXkP7sXgpjkYv-174">
          <mxGeometry x="30" width="350" height="30" as="geometry">
            <mxRectangle width="350" height="30" as="alternateBounds" />
          </mxGeometry>
        </mxCell>
        <mxCell id="jUZU6OPxXkP7sXgpjkYv-177" value="" style="shape=partialRectangle;collapsible=0;dropTarget=0;pointerEvents=0;fillColor=none;points=[[0,0.5],[1,0.5]];portConstraint=eastwest;top=0;left=0;right=0;bottom=0;" vertex="1" parent="Lgd85yXxA8p3wqPTsEd0-1">
          <mxGeometry y="1530" width="380" height="30" as="geometry" />
        </mxCell>
        <mxCell id="jUZU6OPxXkP7sXgpjkYv-178" value="" style="shape=partialRectangle;overflow=hidden;connectable=0;fillColor=none;top=0;left=0;bottom=0;right=0;" vertex="1" parent="jUZU6OPxXkP7sXgpjkYv-177">
          <mxGeometry width="30" height="30" as="geometry">
            <mxRectangle width="30" height="30" as="alternateBounds" />
          </mxGeometry>
        </mxCell>
        <mxCell id="jUZU6OPxXkP7sXgpjkYv-179" value="contract_interest_rate  numeric(8,4)" style="shape=partialRectangle;overflow=hidden;connectable=0;fillColor=none;top=0;left=0;bottom=0;right=0;align=left;spacingLeft=6;" vertex="1" parent="jUZU6OPxXkP7sXgpjkYv-177">
          <mxGeometry x="30" width="350" height="30" as="geometry">
            <mxRectangle width="350" height="30" as="alternateBounds" />
          </mxGeometry>
        </mxCell>
        <mxCell id="jUZU6OPxXkP7sXgpjkYv-180" value="" style="shape=partialRectangle;collapsible=0;dropTarget=0;pointerEvents=0;fillColor=none;points=[[0,0.5],[1,0.5]];portConstraint=eastwest;top=0;left=0;right=0;bottom=0;" vertex="1" parent="Lgd85yXxA8p3wqPTsEd0-1">
          <mxGeometry y="1560" width="380" height="30" as="geometry" />
        </mxCell>
        <mxCell id="jUZU6OPxXkP7sXgpjkYv-181" value="" style="shape=partialRectangle;overflow=hidden;connectable=0;fillColor=none;top=0;left=0;bottom=0;right=0;" vertex="1" parent="jUZU6OPxXkP7sXgpjkYv-180">
          <mxGeometry width="30" height="30" as="geometry">
            <mxRectangle width="30" height="30" as="alternateBounds" />
          </mxGeometry>
        </mxCell>
        <mxCell id="jUZU6OPxXkP7sXgpjkYv-182" value="equity  float8" style="shape=partialRectangle;overflow=hidden;connectable=0;fillColor=none;top=0;left=0;bottom=0;right=0;align=left;spacingLeft=6;" vertex="1" parent="jUZU6OPxXkP7sXgpjkYv-180">
          <mxGeometry x="30" width="350" height="30" as="geometry">
            <mxRectangle width="350" height="30" as="alternateBounds" />
          </mxGeometry>
        </mxCell>
        <mxCell id="jUZU6OPxXkP7sXgpjkYv-183" value="" style="shape=partialRectangle;collapsible=0;dropTarget=0;pointerEvents=0;fillColor=none;points=[[0,0.5],[1,0.5]];portConstraint=eastwest;top=0;left=0;right=0;bottom=0;" vertex="1" parent="Lgd85yXxA8p3wqPTsEd0-1">
          <mxGeometry y="1590" width="380" height="30" as="geometry" />
        </mxCell>
        <mxCell id="jUZU6OPxXkP7sXgpjkYv-184" value="IDX" style="shape=partialRectangle;overflow=hidden;connectable=0;fillColor=none;top=0;left=0;bottom=0;right=0;" vertex="1" parent="jUZU6OPxXkP7sXgpjkYv-183">
          <mxGeometry width="30" height="30" as="geometry">
            <mxRectangle width="30" height="30" as="alternateBounds" />
          </mxGeometry>
        </mxCell>
        <mxCell id="jUZU6OPxXkP7sXgpjkYv-185" value="group_id  int8" style="shape=partialRectangle;overflow=hidden;connectable=0;fillColor=none;top=0;left=0;bottom=0;right=0;align=left;spacingLeft=6;" vertex="1" parent="jUZU6OPxXkP7sXgpjkYv-183">
          <mxGeometry x="30" width="350" height="30" as="geometry">
            <mxRectangle width="350" height="30" as="alternateBounds" />
          </mxGeometry>
        </mxCell>
        <mxCell id="Lgd85yXxA8p3wqPTsEd0-8" value="insight_offer" style="shape=table;startSize=30;container=1;collapsible=1;childLayout=tableLayout;fixedRows=1;rowLines=0;fontStyle=1;align=center;resizeLast=1;" parent="1" vertex="1">
          <mxGeometry x="330" y="-850" width="250" height="670" as="geometry" />
        </mxCell>
        <mxCell id="Lgd85yXxA8p3wqPTsEd0-9" value="" style="shape=partialRectangle;collapsible=0;dropTarget=0;pointerEvents=0;fillColor=none;points=[[0,0.5],[1,0.5]];portConstraint=eastwest;top=0;left=0;right=0;bottom=1;" parent="Lgd85yXxA8p3wqPTsEd0-8" vertex="1">
          <mxGeometry y="30" width="250" height="30" as="geometry" />
        </mxCell>
        <mxCell id="Lgd85yXxA8p3wqPTsEd0-10" value="PK" style="shape=partialRectangle;overflow=hidden;connectable=0;fillColor=none;top=0;left=0;bottom=0;right=0;fontStyle=1;" parent="Lgd85yXxA8p3wqPTsEd0-9" vertex="1">
          <mxGeometry width="30" height="30" as="geometry">
            <mxRectangle width="30" height="30" as="alternateBounds" />
          </mxGeometry>
        </mxCell>
        <mxCell id="Lgd85yXxA8p3wqPTsEd0-11" value="offer_id  serial8" style="shape=partialRectangle;overflow=hidden;connectable=0;fillColor=none;top=0;left=0;bottom=0;right=0;align=left;spacingLeft=6;fontStyle=1;" parent="Lgd85yXxA8p3wqPTsEd0-9" vertex="1">
          <mxGeometry x="30" width="220" height="30" as="geometry">
            <mxRectangle width="220" height="30" as="alternateBounds" />
          </mxGeometry>
        </mxCell>
        <mxCell id="Lgd85yXxA8p3wqPTsEd0-12" value="" style="shape=partialRectangle;collapsible=0;dropTarget=0;pointerEvents=0;fillColor=none;points=[[0,0.5],[1,0.5]];portConstraint=eastwest;top=0;left=0;right=0;bottom=0;" parent="Lgd85yXxA8p3wqPTsEd0-8" vertex="1">
          <mxGeometry y="60" width="250" height="30" as="geometry" />
        </mxCell>
        <mxCell id="Lgd85yXxA8p3wqPTsEd0-13" value="" style="shape=partialRectangle;overflow=hidden;connectable=0;fillColor=none;top=0;left=0;bottom=0;right=0;" parent="Lgd85yXxA8p3wqPTsEd0-12" vertex="1">
          <mxGeometry width="30" height="30" as="geometry">
            <mxRectangle width="30" height="30" as="alternateBounds" />
          </mxGeometry>
        </mxCell>
        <mxCell id="Lgd85yXxA8p3wqPTsEd0-14" value="group_id  int8" style="shape=partialRectangle;overflow=hidden;connectable=0;fillColor=none;top=0;left=0;bottom=0;right=0;align=left;spacingLeft=6;" parent="Lgd85yXxA8p3wqPTsEd0-12" vertex="1">
          <mxGeometry x="30" width="220" height="30" as="geometry">
            <mxRectangle width="220" height="30" as="alternateBounds" />
          </mxGeometry>
        </mxCell>
        <mxCell id="jUZU6OPxXkP7sXgpjkYv-186" value="" style="shape=partialRectangle;collapsible=0;dropTarget=0;pointerEvents=0;fillColor=none;points=[[0,0.5],[1,0.5]];portConstraint=eastwest;top=0;left=0;right=0;bottom=0;" vertex="1" parent="Lgd85yXxA8p3wqPTsEd0-8">
          <mxGeometry y="90" width="250" height="30" as="geometry" />
        </mxCell>
        <mxCell id="jUZU6OPxXkP7sXgpjkYv-187" value="" style="shape=partialRectangle;overflow=hidden;connectable=0;fillColor=none;top=0;left=0;bottom=0;right=0;" vertex="1" parent="jUZU6OPxXkP7sXgpjkYv-186">
          <mxGeometry width="30" height="30" as="geometry">
            <mxRectangle width="30" height="30" as="alternateBounds" />
          </mxGeometry>
        </mxCell>
        <mxCell id="jUZU6OPxXkP7sXgpjkYv-188" value="contract_number  varchar(100)" style="shape=partialRectangle;overflow=hidden;connectable=0;fillColor=none;top=0;left=0;bottom=0;right=0;align=left;spacingLeft=6;" vertex="1" parent="jUZU6OPxXkP7sXgpjkYv-186">
          <mxGeometry x="30" width="220" height="30" as="geometry">
            <mxRectangle width="220" height="30" as="alternateBounds" />
          </mxGeometry>
        </mxCell>
        <mxCell id="jUZU6OPxXkP7sXgpjkYv-189" value="" style="shape=partialRectangle;collapsible=0;dropTarget=0;pointerEvents=0;fillColor=none;points=[[0,0.5],[1,0.5]];portConstraint=eastwest;top=0;left=0;right=0;bottom=0;" vertex="1" parent="Lgd85yXxA8p3wqPTsEd0-8">
          <mxGeometry y="120" width="250" height="30" as="geometry" />
        </mxCell>
        <mxCell id="jUZU6OPxXkP7sXgpjkYv-190" value="" style="shape=partialRectangle;overflow=hidden;connectable=0;fillColor=none;top=0;left=0;bottom=0;right=0;" vertex="1" parent="jUZU6OPxXkP7sXgpjkYv-189">
          <mxGeometry width="30" height="30" as="geometry">
            <mxRectangle width="30" height="30" as="alternateBounds" />
          </mxGeometry>
        </mxCell>
        <mxCell id="jUZU6OPxXkP7sXgpjkYv-191" value="rv  numeric(20,0)" style="shape=partialRectangle;overflow=hidden;connectable=0;fillColor=none;top=0;left=0;bottom=0;right=0;align=left;spacingLeft=6;" vertex="1" parent="jUZU6OPxXkP7sXgpjkYv-189">
          <mxGeometry x="30" width="220" height="30" as="geometry">
            <mxRectangle width="220" height="30" as="alternateBounds" />
          </mxGeometry>
        </mxCell>
        <mxCell id="jUZU6OPxXkP7sXgpjkYv-192" value="" style="shape=partialRectangle;collapsible=0;dropTarget=0;pointerEvents=0;fillColor=none;points=[[0,0.5],[1,0.5]];portConstraint=eastwest;top=0;left=0;right=0;bottom=0;" vertex="1" parent="Lgd85yXxA8p3wqPTsEd0-8">
          <mxGeometry y="150" width="250" height="30" as="geometry" />
        </mxCell>
        <mxCell id="jUZU6OPxXkP7sXgpjkYv-193" value="" style="shape=partialRectangle;overflow=hidden;connectable=0;fillColor=none;top=0;left=0;bottom=0;right=0;" vertex="1" parent="jUZU6OPxXkP7sXgpjkYv-192">
          <mxGeometry width="30" height="30" as="geometry">
            <mxRectangle width="30" height="30" as="alternateBounds" />
          </mxGeometry>
        </mxCell>
        <mxCell id="jUZU6OPxXkP7sXgpjkYv-194" value="offer_type  varchar(50)" style="shape=partialRectangle;overflow=hidden;connectable=0;fillColor=none;top=0;left=0;bottom=0;right=0;align=left;spacingLeft=6;" vertex="1" parent="jUZU6OPxXkP7sXgpjkYv-192">
          <mxGeometry x="30" width="220" height="30" as="geometry">
            <mxRectangle width="220" height="30" as="alternateBounds" />
          </mxGeometry>
        </mxCell>
        <mxCell id="jUZU6OPxXkP7sXgpjkYv-195" value="" style="shape=partialRectangle;collapsible=0;dropTarget=0;pointerEvents=0;fillColor=none;points=[[0,0.5],[1,0.5]];portConstraint=eastwest;top=0;left=0;right=0;bottom=0;" vertex="1" parent="Lgd85yXxA8p3wqPTsEd0-8">
          <mxGeometry y="180" width="250" height="30" as="geometry" />
        </mxCell>
        <mxCell id="jUZU6OPxXkP7sXgpjkYv-196" value="" style="shape=partialRectangle;overflow=hidden;connectable=0;fillColor=none;top=0;left=0;bottom=0;right=0;" vertex="1" parent="jUZU6OPxXkP7sXgpjkYv-195">
          <mxGeometry width="30" height="30" as="geometry">
            <mxRectangle width="30" height="30" as="alternateBounds" />
          </mxGeometry>
        </mxCell>
        <mxCell id="jUZU6OPxXkP7sXgpjkYv-197" value="parity  numeric(20,0)" style="shape=partialRectangle;overflow=hidden;connectable=0;fillColor=none;top=0;left=0;bottom=0;right=0;align=left;spacingLeft=6;" vertex="1" parent="jUZU6OPxXkP7sXgpjkYv-195">
          <mxGeometry x="30" width="220" height="30" as="geometry">
            <mxRectangle width="220" height="30" as="alternateBounds" />
          </mxGeometry>
        </mxCell>
        <mxCell id="jUZU6OPxXkP7sXgpjkYv-198" value="" style="shape=partialRectangle;collapsible=0;dropTarget=0;pointerEvents=0;fillColor=none;points=[[0,0.5],[1,0.5]];portConstraint=eastwest;top=0;left=0;right=0;bottom=0;" vertex="1" parent="Lgd85yXxA8p3wqPTsEd0-8">
          <mxGeometry y="210" width="250" height="30" as="geometry" />
        </mxCell>
        <mxCell id="jUZU6OPxXkP7sXgpjkYv-199" value="" style="shape=partialRectangle;overflow=hidden;connectable=0;fillColor=none;top=0;left=0;bottom=0;right=0;" vertex="1" parent="jUZU6OPxXkP7sXgpjkYv-198">
          <mxGeometry width="30" height="30" as="geometry">
            <mxRectangle width="30" height="30" as="alternateBounds" />
          </mxGeometry>
        </mxCell>
        <mxCell id="jUZU6OPxXkP7sXgpjkYv-200" value="repayment  numeric(18,5)" style="shape=partialRectangle;overflow=hidden;connectable=0;fillColor=none;top=0;left=0;bottom=0;right=0;align=left;spacingLeft=6;" vertex="1" parent="jUZU6OPxXkP7sXgpjkYv-198">
          <mxGeometry x="30" width="220" height="30" as="geometry">
            <mxRectangle width="220" height="30" as="alternateBounds" />
          </mxGeometry>
        </mxCell>
        <mxCell id="jUZU6OPxXkP7sXgpjkYv-201" value="" style="shape=partialRectangle;collapsible=0;dropTarget=0;pointerEvents=0;fillColor=none;points=[[0,0.5],[1,0.5]];portConstraint=eastwest;top=0;left=0;right=0;bottom=0;" vertex="1" parent="Lgd85yXxA8p3wqPTsEd0-8">
          <mxGeometry y="240" width="250" height="30" as="geometry" />
        </mxCell>
        <mxCell id="jUZU6OPxXkP7sXgpjkYv-202" value="" style="shape=partialRectangle;overflow=hidden;connectable=0;fillColor=none;top=0;left=0;bottom=0;right=0;" vertex="1" parent="jUZU6OPxXkP7sXgpjkYv-201">
          <mxGeometry width="30" height="30" as="geometry">
            <mxRectangle width="30" height="30" as="alternateBounds" />
          </mxGeometry>
        </mxCell>
        <mxCell id="jUZU6OPxXkP7sXgpjkYv-203" value="downpayment  numeric(18,5)" style="shape=partialRectangle;overflow=hidden;connectable=0;fillColor=none;top=0;left=0;bottom=0;right=0;align=left;spacingLeft=6;" vertex="1" parent="jUZU6OPxXkP7sXgpjkYv-201">
          <mxGeometry x="30" width="220" height="30" as="geometry">
            <mxRectangle width="220" height="30" as="alternateBounds" />
          </mxGeometry>
        </mxCell>
        <mxCell id="jUZU6OPxXkP7sXgpjkYv-204" value="" style="shape=partialRectangle;collapsible=0;dropTarget=0;pointerEvents=0;fillColor=none;points=[[0,0.5],[1,0.5]];portConstraint=eastwest;top=0;left=0;right=0;bottom=0;" vertex="1" parent="Lgd85yXxA8p3wqPTsEd0-8">
          <mxGeometry y="270" width="250" height="30" as="geometry" />
        </mxCell>
        <mxCell id="jUZU6OPxXkP7sXgpjkYv-205" value="" style="shape=partialRectangle;overflow=hidden;connectable=0;fillColor=none;top=0;left=0;bottom=0;right=0;" vertex="1" parent="jUZU6OPxXkP7sXgpjkYv-204">
          <mxGeometry width="30" height="30" as="geometry">
            <mxRectangle width="30" height="30" as="alternateBounds" />
          </mxGeometry>
        </mxCell>
        <mxCell id="jUZU6OPxXkP7sXgpjkYv-206" value="downpayment_pct  numeric(8,5)" style="shape=partialRectangle;overflow=hidden;connectable=0;fillColor=none;top=0;left=0;bottom=0;right=0;align=left;spacingLeft=6;" vertex="1" parent="jUZU6OPxXkP7sXgpjkYv-204">
          <mxGeometry x="30" width="220" height="30" as="geometry">
            <mxRectangle width="220" height="30" as="alternateBounds" />
          </mxGeometry>
        </mxCell>
        <mxCell id="jUZU6OPxXkP7sXgpjkYv-207" value="" style="shape=partialRectangle;collapsible=0;dropTarget=0;pointerEvents=0;fillColor=none;points=[[0,0.5],[1,0.5]];portConstraint=eastwest;top=0;left=0;right=0;bottom=0;" vertex="1" parent="Lgd85yXxA8p3wqPTsEd0-8">
          <mxGeometry y="300" width="250" height="30" as="geometry" />
        </mxCell>
        <mxCell id="jUZU6OPxXkP7sXgpjkYv-208" value="" style="shape=partialRectangle;overflow=hidden;connectable=0;fillColor=none;top=0;left=0;bottom=0;right=0;" vertex="1" parent="jUZU6OPxXkP7sXgpjkYv-207">
          <mxGeometry width="30" height="30" as="geometry">
            <mxRectangle width="30" height="30" as="alternateBounds" />
          </mxGeometry>
        </mxCell>
        <mxCell id="jUZU6OPxXkP7sXgpjkYv-209" value="balloon  numeric(5,2)" style="shape=partialRectangle;overflow=hidden;connectable=0;fillColor=none;top=0;left=0;bottom=0;right=0;align=left;spacingLeft=6;" vertex="1" parent="jUZU6OPxXkP7sXgpjkYv-207">
          <mxGeometry x="30" width="220" height="30" as="geometry">
            <mxRectangle width="220" height="30" as="alternateBounds" />
          </mxGeometry>
        </mxCell>
        <mxCell id="jUZU6OPxXkP7sXgpjkYv-210" value="" style="shape=partialRectangle;collapsible=0;dropTarget=0;pointerEvents=0;fillColor=none;points=[[0,0.5],[1,0.5]];portConstraint=eastwest;top=0;left=0;right=0;bottom=0;" vertex="1" parent="Lgd85yXxA8p3wqPTsEd0-8">
          <mxGeometry y="330" width="250" height="30" as="geometry" />
        </mxCell>
        <mxCell id="jUZU6OPxXkP7sXgpjkYv-211" value="" style="shape=partialRectangle;overflow=hidden;connectable=0;fillColor=none;top=0;left=0;bottom=0;right=0;" vertex="1" parent="jUZU6OPxXkP7sXgpjkYv-210">
          <mxGeometry width="30" height="30" as="geometry">
            <mxRectangle width="30" height="30" as="alternateBounds" />
          </mxGeometry>
        </mxCell>
        <mxCell id="jUZU6OPxXkP7sXgpjkYv-212" value="msrp  numeric(20,0)" style="shape=partialRectangle;overflow=hidden;connectable=0;fillColor=none;top=0;left=0;bottom=0;right=0;align=left;spacingLeft=6;" vertex="1" parent="jUZU6OPxXkP7sXgpjkYv-210">
          <mxGeometry x="30" width="220" height="30" as="geometry">
            <mxRectangle width="220" height="30" as="alternateBounds" />
          </mxGeometry>
        </mxCell>
        <mxCell id="jUZU6OPxXkP7sXgpjkYv-213" value="" style="shape=partialRectangle;collapsible=0;dropTarget=0;pointerEvents=0;fillColor=none;points=[[0,0.5],[1,0.5]];portConstraint=eastwest;top=0;left=0;right=0;bottom=0;" vertex="1" parent="Lgd85yXxA8p3wqPTsEd0-8">
          <mxGeometry y="360" width="250" height="30" as="geometry" />
        </mxCell>
        <mxCell id="jUZU6OPxXkP7sXgpjkYv-214" value="" style="shape=partialRectangle;overflow=hidden;connectable=0;fillColor=none;top=0;left=0;bottom=0;right=0;" vertex="1" parent="jUZU6OPxXkP7sXgpjkYv-213">
          <mxGeometry width="30" height="30" as="geometry">
            <mxRectangle width="30" height="30" as="alternateBounds" />
          </mxGeometry>
        </mxCell>
        <mxCell id="jUZU6OPxXkP7sXgpjkYv-215" value="financial_product_id  int4" style="shape=partialRectangle;overflow=hidden;connectable=0;fillColor=none;top=0;left=0;bottom=0;right=0;align=left;spacingLeft=6;" vertex="1" parent="jUZU6OPxXkP7sXgpjkYv-213">
          <mxGeometry x="30" width="220" height="30" as="geometry">
            <mxRectangle width="220" height="30" as="alternateBounds" />
          </mxGeometry>
        </mxCell>
        <mxCell id="jUZU6OPxXkP7sXgpjkYv-216" value="" style="shape=partialRectangle;collapsible=0;dropTarget=0;pointerEvents=0;fillColor=none;points=[[0,0.5],[1,0.5]];portConstraint=eastwest;top=0;left=0;right=0;bottom=0;" vertex="1" parent="Lgd85yXxA8p3wqPTsEd0-8">
          <mxGeometry y="390" width="250" height="30" as="geometry" />
        </mxCell>
        <mxCell id="jUZU6OPxXkP7sXgpjkYv-217" value="" style="shape=partialRectangle;overflow=hidden;connectable=0;fillColor=none;top=0;left=0;bottom=0;right=0;" vertex="1" parent="jUZU6OPxXkP7sXgpjkYv-216">
          <mxGeometry width="30" height="30" as="geometry">
            <mxRectangle width="30" height="30" as="alternateBounds" />
          </mxGeometry>
        </mxCell>
        <mxCell id="jUZU6OPxXkP7sXgpjkYv-218" value="financial_product_id  int4" style="shape=partialRectangle;overflow=hidden;connectable=0;fillColor=none;top=0;left=0;bottom=0;right=0;align=left;spacingLeft=6;" vertex="1" parent="jUZU6OPxXkP7sXgpjkYv-216">
          <mxGeometry x="30" width="220" height="30" as="geometry">
            <mxRectangle width="220" height="30" as="alternateBounds" />
          </mxGeometry>
        </mxCell>
        <mxCell id="jUZU6OPxXkP7sXgpjkYv-219" value="" style="shape=partialRectangle;collapsible=0;dropTarget=0;pointerEvents=0;fillColor=none;points=[[0,0.5],[1,0.5]];portConstraint=eastwest;top=0;left=0;right=0;bottom=0;" vertex="1" parent="Lgd85yXxA8p3wqPTsEd0-8">
          <mxGeometry y="420" width="250" height="30" as="geometry" />
        </mxCell>
        <mxCell id="jUZU6OPxXkP7sXgpjkYv-220" value="" style="shape=partialRectangle;overflow=hidden;connectable=0;fillColor=none;top=0;left=0;bottom=0;right=0;" vertex="1" parent="jUZU6OPxXkP7sXgpjkYv-219">
          <mxGeometry width="30" height="30" as="geometry">
            <mxRectangle width="30" height="30" as="alternateBounds" />
          </mxGeometry>
        </mxCell>
        <mxCell id="jUZU6OPxXkP7sXgpjkYv-221" value="company  int2" style="shape=partialRectangle;overflow=hidden;connectable=0;fillColor=none;top=0;left=0;bottom=0;right=0;align=left;spacingLeft=6;" vertex="1" parent="jUZU6OPxXkP7sXgpjkYv-219">
          <mxGeometry x="30" width="220" height="30" as="geometry">
            <mxRectangle width="220" height="30" as="alternateBounds" />
          </mxGeometry>
        </mxCell>
        <mxCell id="jUZU6OPxXkP7sXgpjkYv-222" value="" style="shape=partialRectangle;collapsible=0;dropTarget=0;pointerEvents=0;fillColor=none;points=[[0,0.5],[1,0.5]];portConstraint=eastwest;top=0;left=0;right=0;bottom=0;" vertex="1" parent="Lgd85yXxA8p3wqPTsEd0-8">
          <mxGeometry y="450" width="250" height="30" as="geometry" />
        </mxCell>
        <mxCell id="jUZU6OPxXkP7sXgpjkYv-223" value="" style="shape=partialRectangle;overflow=hidden;connectable=0;fillColor=none;top=0;left=0;bottom=0;right=0;" vertex="1" parent="jUZU6OPxXkP7sXgpjkYv-222">
          <mxGeometry width="30" height="30" as="geometry">
            <mxRectangle width="30" height="30" as="alternateBounds" />
          </mxGeometry>
        </mxCell>
        <mxCell id="jUZU6OPxXkP7sXgpjkYv-224" value="product_full_name  varchar(100)" style="shape=partialRectangle;overflow=hidden;connectable=0;fillColor=none;top=0;left=0;bottom=0;right=0;align=left;spacingLeft=6;" vertex="1" parent="jUZU6OPxXkP7sXgpjkYv-222">
          <mxGeometry x="30" width="220" height="30" as="geometry">
            <mxRectangle width="220" height="30" as="alternateBounds" />
          </mxGeometry>
        </mxCell>
        <mxCell id="jUZU6OPxXkP7sXgpjkYv-225" value="" style="shape=partialRectangle;collapsible=0;dropTarget=0;pointerEvents=0;fillColor=none;points=[[0,0.5],[1,0.5]];portConstraint=eastwest;top=0;left=0;right=0;bottom=0;" vertex="1" parent="Lgd85yXxA8p3wqPTsEd0-8">
          <mxGeometry y="480" width="250" height="30" as="geometry" />
        </mxCell>
        <mxCell id="jUZU6OPxXkP7sXgpjkYv-226" value="" style="shape=partialRectangle;overflow=hidden;connectable=0;fillColor=none;top=0;left=0;bottom=0;right=0;" vertex="1" parent="jUZU6OPxXkP7sXgpjkYv-225">
          <mxGeometry width="30" height="30" as="geometry">
            <mxRectangle width="30" height="30" as="alternateBounds" />
          </mxGeometry>
        </mxCell>
        <mxCell id="jUZU6OPxXkP7sXgpjkYv-227" value="dealer_fp_name_cn  varchar(100)" style="shape=partialRectangle;overflow=hidden;connectable=0;fillColor=none;top=0;left=0;bottom=0;right=0;align=left;spacingLeft=6;" vertex="1" parent="jUZU6OPxXkP7sXgpjkYv-225">
          <mxGeometry x="30" width="220" height="30" as="geometry">
            <mxRectangle width="220" height="30" as="alternateBounds" />
          </mxGeometry>
        </mxCell>
        <mxCell id="jUZU6OPxXkP7sXgpjkYv-228" value="" style="shape=partialRectangle;collapsible=0;dropTarget=0;pointerEvents=0;fillColor=none;points=[[0,0.5],[1,0.5]];portConstraint=eastwest;top=0;left=0;right=0;bottom=0;" vertex="1" parent="Lgd85yXxA8p3wqPTsEd0-8">
          <mxGeometry y="510" width="250" height="30" as="geometry" />
        </mxCell>
        <mxCell id="jUZU6OPxXkP7sXgpjkYv-229" value="" style="shape=partialRectangle;overflow=hidden;connectable=0;fillColor=none;top=0;left=0;bottom=0;right=0;" vertex="1" parent="jUZU6OPxXkP7sXgpjkYv-228">
          <mxGeometry width="30" height="30" as="geometry">
            <mxRectangle width="30" height="30" as="alternateBounds" />
          </mxGeometry>
        </mxCell>
        <mxCell id="jUZU6OPxXkP7sXgpjkYv-230" value="dealer_fp_name_en  varchar(100)" style="shape=partialRectangle;overflow=hidden;connectable=0;fillColor=none;top=0;left=0;bottom=0;right=0;align=left;spacingLeft=6;" vertex="1" parent="jUZU6OPxXkP7sXgpjkYv-228">
          <mxGeometry x="30" width="220" height="30" as="geometry">
            <mxRectangle width="220" height="30" as="alternateBounds" />
          </mxGeometry>
        </mxCell>
        <mxCell id="jUZU6OPxXkP7sXgpjkYv-231" value="" style="shape=partialRectangle;collapsible=0;dropTarget=0;pointerEvents=0;fillColor=none;points=[[0,0.5],[1,0.5]];portConstraint=eastwest;top=0;left=0;right=0;bottom=0;" vertex="1" parent="Lgd85yXxA8p3wqPTsEd0-8">
          <mxGeometry y="540" width="250" height="30" as="geometry" />
        </mxCell>
        <mxCell id="jUZU6OPxXkP7sXgpjkYv-232" value="" style="shape=partialRectangle;overflow=hidden;connectable=0;fillColor=none;top=0;left=0;bottom=0;right=0;" vertex="1" parent="jUZU6OPxXkP7sXgpjkYv-231">
          <mxGeometry width="30" height="30" as="geometry">
            <mxRectangle width="30" height="30" as="alternateBounds" />
          </mxGeometry>
        </mxCell>
        <mxCell id="jUZU6OPxXkP7sXgpjkYv-233" value="dealer_fp_name_en  varchar(100)" style="shape=partialRectangle;overflow=hidden;connectable=0;fillColor=none;top=0;left=0;bottom=0;right=0;align=left;spacingLeft=6;" vertex="1" parent="jUZU6OPxXkP7sXgpjkYv-231">
          <mxGeometry x="30" width="220" height="30" as="geometry">
            <mxRectangle width="220" height="30" as="alternateBounds" />
          </mxGeometry>
        </mxCell>
        <mxCell id="jUZU6OPxXkP7sXgpjkYv-234" value="" style="shape=partialRectangle;collapsible=0;dropTarget=0;pointerEvents=0;fillColor=none;points=[[0,0.5],[1,0.5]];portConstraint=eastwest;top=0;left=0;right=0;bottom=0;" vertex="1" parent="Lgd85yXxA8p3wqPTsEd0-8">
          <mxGeometry y="570" width="250" height="30" as="geometry" />
        </mxCell>
        <mxCell id="jUZU6OPxXkP7sXgpjkYv-235" value="" style="shape=partialRectangle;overflow=hidden;connectable=0;fillColor=none;top=0;left=0;bottom=0;right=0;" vertex="1" parent="jUZU6OPxXkP7sXgpjkYv-234">
          <mxGeometry width="30" height="30" as="geometry">
            <mxRectangle width="30" height="30" as="alternateBounds" />
          </mxGeometry>
        </mxCell>
        <mxCell id="jUZU6OPxXkP7sXgpjkYv-236" value="mileage  int4" style="shape=partialRectangle;overflow=hidden;connectable=0;fillColor=none;top=0;left=0;bottom=0;right=0;align=left;spacingLeft=6;" vertex="1" parent="jUZU6OPxXkP7sXgpjkYv-234">
          <mxGeometry x="30" width="220" height="30" as="geometry">
            <mxRectangle width="220" height="30" as="alternateBounds" />
          </mxGeometry>
        </mxCell>
        <mxCell id="jUZU6OPxXkP7sXgpjkYv-237" value="" style="shape=partialRectangle;collapsible=0;dropTarget=0;pointerEvents=0;fillColor=none;points=[[0,0.5],[1,0.5]];portConstraint=eastwest;top=0;left=0;right=0;bottom=0;" vertex="1" parent="Lgd85yXxA8p3wqPTsEd0-8">
          <mxGeometry y="600" width="250" height="30" as="geometry" />
        </mxCell>
        <mxCell id="jUZU6OPxXkP7sXgpjkYv-238" value="" style="shape=partialRectangle;overflow=hidden;connectable=0;fillColor=none;top=0;left=0;bottom=0;right=0;" vertex="1" parent="jUZU6OPxXkP7sXgpjkYv-237">
          <mxGeometry width="30" height="30" as="geometry">
            <mxRectangle width="30" height="30" as="alternateBounds" />
          </mxGeometry>
        </mxCell>
        <mxCell id="jUZU6OPxXkP7sXgpjkYv-239" value="term  int2" style="shape=partialRectangle;overflow=hidden;connectable=0;fillColor=none;top=0;left=0;bottom=0;right=0;align=left;spacingLeft=6;" vertex="1" parent="jUZU6OPxXkP7sXgpjkYv-237">
          <mxGeometry x="30" width="220" height="30" as="geometry">
            <mxRectangle width="220" height="30" as="alternateBounds" />
          </mxGeometry>
        </mxCell>
        <mxCell id="jUZU6OPxXkP7sXgpjkYv-240" value="" style="shape=partialRectangle;collapsible=0;dropTarget=0;pointerEvents=0;fillColor=none;points=[[0,0.5],[1,0.5]];portConstraint=eastwest;top=0;left=0;right=0;bottom=0;" vertex="1" parent="Lgd85yXxA8p3wqPTsEd0-8">
          <mxGeometry y="630" width="250" height="30" as="geometry" />
        </mxCell>
        <mxCell id="jUZU6OPxXkP7sXgpjkYv-241" value="" style="shape=partialRectangle;overflow=hidden;connectable=0;fillColor=none;top=0;left=0;bottom=0;right=0;" vertex="1" parent="jUZU6OPxXkP7sXgpjkYv-240">
          <mxGeometry width="30" height="30" as="geometry">
            <mxRectangle width="30" height="30" as="alternateBounds" />
          </mxGeometry>
        </mxCell>
        <mxCell id="jUZU6OPxXkP7sXgpjkYv-242" value="customer_rate  numeric(18,5)" style="shape=partialRectangle;overflow=hidden;connectable=0;fillColor=none;top=0;left=0;bottom=0;right=0;align=left;spacingLeft=6;" vertex="1" parent="jUZU6OPxXkP7sXgpjkYv-240">
          <mxGeometry x="30" width="220" height="30" as="geometry">
            <mxRectangle width="220" height="30" as="alternateBounds" />
          </mxGeometry>
        </mxCell>
        <mxCell id="Lgd85yXxA8p3wqPTsEd0-15" style="edgeStyle=orthogonalEdgeStyle;rounded=0;orthogonalLoop=1;jettySize=auto;html=1;exitX=1;exitY=0.5;exitDx=0;exitDy=0;entryX=0;entryY=0.5;entryDx=0;entryDy=0;endArrow=ERzeroToMany;endFill=0;" parent="1" source="Lgd85yXxA8p3wqPTsEd0-2" target="Lgd85yXxA8p3wqPTsEd0-9" edge="1">
          <mxGeometry relative="1" as="geometry" />
        </mxCell>
        <mxCell id="Lgd85yXxA8p3wqPTsEd0-16" value="group" style="shape=table;startSize=30;container=1;collapsible=1;childLayout=tableLayout;fixedRows=1;rowLines=0;fontStyle=1;align=center;resizeLast=1;" parent="1" vertex="1">
          <mxGeometry x="320" y="-100" width="308" height="470" as="geometry">
            <mxRectangle x="91" y="830" width="120" height="30" as="alternateBounds" />
          </mxGeometry>
        </mxCell>
        <mxCell id="Lgd85yXxA8p3wqPTsEd0-17" value="" style="shape=partialRectangle;collapsible=0;dropTarget=0;pointerEvents=0;fillColor=none;points=[[0,0.5],[1,0.5]];portConstraint=eastwest;top=0;left=0;right=0;bottom=1;" parent="Lgd85yXxA8p3wqPTsEd0-16" vertex="1">
          <mxGeometry y="30" width="308" height="30" as="geometry" />
        </mxCell>
        <mxCell id="Lgd85yXxA8p3wqPTsEd0-18" value="PK" style="shape=partialRectangle;overflow=hidden;connectable=0;fillColor=none;top=0;left=0;bottom=0;right=0;fontStyle=1;" parent="Lgd85yXxA8p3wqPTsEd0-17" vertex="1">
          <mxGeometry width="30" height="30" as="geometry">
            <mxRectangle width="30" height="30" as="alternateBounds" />
          </mxGeometry>
        </mxCell>
        <mxCell id="Lgd85yXxA8p3wqPTsEd0-19" value="group_id     serial4" style="shape=partialRectangle;overflow=hidden;connectable=0;fillColor=none;top=0;left=0;bottom=0;right=0;align=left;spacingLeft=6;fontStyle=1;" parent="Lgd85yXxA8p3wqPTsEd0-17" vertex="1">
          <mxGeometry x="30" width="278" height="30" as="geometry">
            <mxRectangle width="278" height="30" as="alternateBounds" />
          </mxGeometry>
        </mxCell>
        <mxCell id="Lgd85yXxA8p3wqPTsEd0-20" value="" style="shape=partialRectangle;collapsible=0;dropTarget=0;pointerEvents=0;fillColor=none;points=[[0,0.5],[1,0.5]];portConstraint=eastwest;top=0;left=0;right=0;bottom=0;" parent="Lgd85yXxA8p3wqPTsEd0-16" vertex="1">
          <mxGeometry y="60" width="308" height="40" as="geometry" />
        </mxCell>
        <mxCell id="Lgd85yXxA8p3wqPTsEd0-21" value="" style="shape=partialRectangle;overflow=hidden;connectable=0;fillColor=none;top=0;left=0;bottom=0;right=0;" parent="Lgd85yXxA8p3wqPTsEd0-20" vertex="1">
          <mxGeometry width="30" height="40" as="geometry">
            <mxRectangle width="30" height="40" as="alternateBounds" />
          </mxGeometry>
        </mxCell>
        <mxCell id="Lgd85yXxA8p3wqPTsEd0-22" value="name  varchar(100)" style="shape=partialRectangle;overflow=hidden;connectable=0;fillColor=none;top=0;left=0;bottom=0;right=0;align=left;spacingLeft=6;" parent="Lgd85yXxA8p3wqPTsEd0-20" vertex="1">
          <mxGeometry x="30" width="278" height="40" as="geometry">
            <mxRectangle width="278" height="40" as="alternateBounds" />
          </mxGeometry>
        </mxCell>
        <mxCell id="Lgd85yXxA8p3wqPTsEd0-23" value="" style="shape=partialRectangle;collapsible=0;dropTarget=0;pointerEvents=0;fillColor=none;points=[[0,0.5],[1,0.5]];portConstraint=eastwest;top=0;left=0;right=0;bottom=0;" parent="Lgd85yXxA8p3wqPTsEd0-16" vertex="1">
          <mxGeometry y="100" width="308" height="40" as="geometry" />
        </mxCell>
        <mxCell id="Lgd85yXxA8p3wqPTsEd0-24" value="" style="shape=partialRectangle;overflow=hidden;connectable=0;fillColor=none;top=0;left=0;bottom=0;right=0;" parent="Lgd85yXxA8p3wqPTsEd0-23" vertex="1">
          <mxGeometry width="30" height="40" as="geometry">
            <mxRectangle width="30" height="40" as="alternateBounds" />
          </mxGeometry>
        </mxCell>
        <mxCell id="Lgd85yXxA8p3wqPTsEd0-25" value="filter  text" style="shape=partialRectangle;overflow=hidden;connectable=0;fillColor=none;top=0;left=0;bottom=0;right=0;align=left;spacingLeft=6;" parent="Lgd85yXxA8p3wqPTsEd0-23" vertex="1">
          <mxGeometry x="30" width="278" height="40" as="geometry">
            <mxRectangle width="278" height="40" as="alternateBounds" />
          </mxGeometry>
        </mxCell>
        <mxCell id="2R6In421giZ6Qn-jR1Jp-1" value="" style="shape=partialRectangle;collapsible=0;dropTarget=0;pointerEvents=0;fillColor=none;points=[[0,0.5],[1,0.5]];portConstraint=eastwest;top=0;left=0;right=0;bottom=0;" parent="Lgd85yXxA8p3wqPTsEd0-16" vertex="1">
          <mxGeometry y="140" width="308" height="40" as="geometry" />
        </mxCell>
        <mxCell id="2R6In421giZ6Qn-jR1Jp-2" value="" style="shape=partialRectangle;overflow=hidden;connectable=0;fillColor=none;top=0;left=0;bottom=0;right=0;" parent="2R6In421giZ6Qn-jR1Jp-1" vertex="1">
          <mxGeometry width="30" height="40" as="geometry">
            <mxRectangle width="30" height="40" as="alternateBounds" />
          </mxGeometry>
        </mxCell>
        <mxCell id="2R6In421giZ6Qn-jR1Jp-3" value="contract_daily_count  int4" style="shape=partialRectangle;overflow=hidden;connectable=0;fillColor=none;top=0;left=0;bottom=0;right=0;align=left;spacingLeft=6;" parent="2R6In421giZ6Qn-jR1Jp-1" vertex="1">
          <mxGeometry x="30" width="278" height="40" as="geometry">
            <mxRectangle width="278" height="40" as="alternateBounds" />
          </mxGeometry>
        </mxCell>
        <mxCell id="osx_LGfD4Lyg8Ocd-RCQ-4" value="" style="shape=partialRectangle;collapsible=0;dropTarget=0;pointerEvents=0;fillColor=none;points=[[0,0.5],[1,0.5]];portConstraint=eastwest;top=0;left=0;right=0;bottom=0;" parent="Lgd85yXxA8p3wqPTsEd0-16" vertex="1">
          <mxGeometry y="180" width="308" height="40" as="geometry" />
        </mxCell>
        <mxCell id="osx_LGfD4Lyg8Ocd-RCQ-5" value="" style="shape=partialRectangle;overflow=hidden;connectable=0;fillColor=none;top=0;left=0;bottom=0;right=0;" parent="osx_LGfD4Lyg8Ocd-RCQ-4" vertex="1">
          <mxGeometry width="30" height="40" as="geometry">
            <mxRectangle width="30" height="40" as="alternateBounds" />
          </mxGeometry>
        </mxCell>
        <mxCell id="osx_LGfD4Lyg8Ocd-RCQ-6" value="priority  int2" style="shape=partialRectangle;overflow=hidden;connectable=0;fillColor=none;top=0;left=0;bottom=0;right=0;align=left;spacingLeft=6;" parent="osx_LGfD4Lyg8Ocd-RCQ-4" vertex="1">
          <mxGeometry x="30" width="278" height="40" as="geometry">
            <mxRectangle width="278" height="40" as="alternateBounds" />
          </mxGeometry>
        </mxCell>
        <mxCell id="Lgd85yXxA8p3wqPTsEd0-29" value="" style="shape=partialRectangle;collapsible=0;dropTarget=0;pointerEvents=0;fillColor=none;points=[[0,0.5],[1,0.5]];portConstraint=eastwest;top=0;left=0;right=0;bottom=0;" parent="Lgd85yXxA8p3wqPTsEd0-16" vertex="1">
          <mxGeometry y="220" width="308" height="40" as="geometry" />
        </mxCell>
        <mxCell id="Lgd85yXxA8p3wqPTsEd0-30" value="" style="shape=partialRectangle;overflow=hidden;connectable=0;fillColor=none;top=0;left=0;bottom=0;right=0;" parent="Lgd85yXxA8p3wqPTsEd0-29" vertex="1">
          <mxGeometry width="30" height="40" as="geometry">
            <mxRectangle width="30" height="40" as="alternateBounds" />
          </mxGeometry>
        </mxCell>
        <mxCell id="Lgd85yXxA8p3wqPTsEd0-31" value="status  int2 (0已保存未应用, 1已应用, 2删除)" style="shape=partialRectangle;overflow=hidden;connectable=0;fillColor=none;top=0;left=0;bottom=0;right=0;align=left;spacingLeft=6;" parent="Lgd85yXxA8p3wqPTsEd0-29" vertex="1">
          <mxGeometry x="30" width="278" height="40" as="geometry">
            <mxRectangle width="278" height="40" as="alternateBounds" />
          </mxGeometry>
        </mxCell>
        <mxCell id="KiypFB0Y1RaeO7jzYdFj-1" value="" style="shape=partialRectangle;collapsible=0;dropTarget=0;pointerEvents=0;fillColor=none;points=[[0,0.5],[1,0.5]];portConstraint=eastwest;top=0;left=0;right=0;bottom=0;" parent="Lgd85yXxA8p3wqPTsEd0-16" vertex="1">
          <mxGeometry y="260" width="308" height="40" as="geometry" />
        </mxCell>
        <mxCell id="KiypFB0Y1RaeO7jzYdFj-2" value="" style="shape=partialRectangle;overflow=hidden;connectable=0;fillColor=none;top=0;left=0;bottom=0;right=0;" parent="KiypFB0Y1RaeO7jzYdFj-1" vertex="1">
          <mxGeometry width="30" height="40" as="geometry">
            <mxRectangle width="30" height="40" as="alternateBounds" />
          </mxGeometry>
        </mxCell>
        <mxCell id="KiypFB0Y1RaeO7jzYdFj-3" value="group_type int2 (1普通分组, 2默认分组)" style="shape=partialRectangle;overflow=hidden;connectable=0;fillColor=none;top=0;left=0;bottom=0;right=0;align=left;spacingLeft=6;" parent="KiypFB0Y1RaeO7jzYdFj-1" vertex="1">
          <mxGeometry x="30" width="278" height="40" as="geometry">
            <mxRectangle width="278" height="40" as="alternateBounds" />
          </mxGeometry>
        </mxCell>
        <mxCell id="zZ3A37CLWOh8GCv3uw9L-1" value="" style="shape=partialRectangle;collapsible=0;dropTarget=0;pointerEvents=0;fillColor=none;points=[[0,0.5],[1,0.5]];portConstraint=eastwest;top=0;left=0;right=0;bottom=0;" parent="Lgd85yXxA8p3wqPTsEd0-16" vertex="1">
          <mxGeometry y="300" width="308" height="40" as="geometry" />
        </mxCell>
        <mxCell id="zZ3A37CLWOh8GCv3uw9L-2" value="" style="shape=partialRectangle;overflow=hidden;connectable=0;fillColor=none;top=0;left=0;bottom=0;right=0;" parent="zZ3A37CLWOh8GCv3uw9L-1" vertex="1">
          <mxGeometry width="30" height="40" as="geometry">
            <mxRectangle width="30" height="40" as="alternateBounds" />
          </mxGeometry>
        </mxCell>
        <mxCell id="zZ3A37CLWOh8GCv3uw9L-3" value="create_user  varchar(30)" style="shape=partialRectangle;overflow=hidden;connectable=0;fillColor=none;top=0;left=0;bottom=0;right=0;align=left;spacingLeft=6;" parent="zZ3A37CLWOh8GCv3uw9L-1" vertex="1">
          <mxGeometry x="30" width="278" height="40" as="geometry">
            <mxRectangle width="278" height="40" as="alternateBounds" />
          </mxGeometry>
        </mxCell>
        <mxCell id="bq9kwz9mXwM456cV49Q8-2" value="" style="shape=partialRectangle;collapsible=0;dropTarget=0;pointerEvents=0;fillColor=none;points=[[0,0.5],[1,0.5]];portConstraint=eastwest;top=0;left=0;right=0;bottom=0;" parent="Lgd85yXxA8p3wqPTsEd0-16" vertex="1">
          <mxGeometry y="340" width="308" height="40" as="geometry" />
        </mxCell>
        <mxCell id="bq9kwz9mXwM456cV49Q8-3" value="" style="shape=partialRectangle;overflow=hidden;connectable=0;fillColor=none;top=0;left=0;bottom=0;right=0;" parent="bq9kwz9mXwM456cV49Q8-2" vertex="1">
          <mxGeometry width="30" height="40" as="geometry">
            <mxRectangle width="30" height="40" as="alternateBounds" />
          </mxGeometry>
        </mxCell>
        <mxCell id="bq9kwz9mXwM456cV49Q8-4" value="create_time  timestamp" style="shape=partialRectangle;overflow=hidden;connectable=0;fillColor=none;top=0;left=0;bottom=0;right=0;align=left;spacingLeft=6;" parent="bq9kwz9mXwM456cV49Q8-2" vertex="1">
          <mxGeometry x="30" width="278" height="40" as="geometry">
            <mxRectangle width="278" height="40" as="alternateBounds" />
          </mxGeometry>
        </mxCell>
        <mxCell id="zZ3A37CLWOh8GCv3uw9L-4" value="" style="shape=partialRectangle;collapsible=0;dropTarget=0;pointerEvents=0;fillColor=none;points=[[0,0.5],[1,0.5]];portConstraint=eastwest;top=0;left=0;right=0;bottom=0;" parent="Lgd85yXxA8p3wqPTsEd0-16" vertex="1">
          <mxGeometry y="380" width="308" height="40" as="geometry" />
        </mxCell>
        <mxCell id="zZ3A37CLWOh8GCv3uw9L-5" value="" style="shape=partialRectangle;overflow=hidden;connectable=0;fillColor=none;top=0;left=0;bottom=0;right=0;" parent="zZ3A37CLWOh8GCv3uw9L-4" vertex="1">
          <mxGeometry width="30" height="40" as="geometry">
            <mxRectangle width="30" height="40" as="alternateBounds" />
          </mxGeometry>
        </mxCell>
        <mxCell id="zZ3A37CLWOh8GCv3uw9L-6" value="update_user  varchar(30)" style="shape=partialRectangle;overflow=hidden;connectable=0;fillColor=none;top=0;left=0;bottom=0;right=0;align=left;spacingLeft=6;" parent="zZ3A37CLWOh8GCv3uw9L-4" vertex="1">
          <mxGeometry x="30" width="278" height="40" as="geometry">
            <mxRectangle width="278" height="40" as="alternateBounds" />
          </mxGeometry>
        </mxCell>
        <mxCell id="bq9kwz9mXwM456cV49Q8-5" value="" style="shape=partialRectangle;collapsible=0;dropTarget=0;pointerEvents=0;fillColor=none;points=[[0,0.5],[1,0.5]];portConstraint=eastwest;top=0;left=0;right=0;bottom=0;" parent="Lgd85yXxA8p3wqPTsEd0-16" vertex="1">
          <mxGeometry y="420" width="308" height="40" as="geometry" />
        </mxCell>
        <mxCell id="bq9kwz9mXwM456cV49Q8-6" value="" style="shape=partialRectangle;overflow=hidden;connectable=0;fillColor=none;top=0;left=0;bottom=0;right=0;" parent="bq9kwz9mXwM456cV49Q8-5" vertex="1">
          <mxGeometry width="30" height="40" as="geometry">
            <mxRectangle width="30" height="40" as="alternateBounds" />
          </mxGeometry>
        </mxCell>
        <mxCell id="bq9kwz9mXwM456cV49Q8-7" value="update_time  timestamp" style="shape=partialRectangle;overflow=hidden;connectable=0;fillColor=none;top=0;left=0;bottom=0;right=0;align=left;spacingLeft=6;" parent="bq9kwz9mXwM456cV49Q8-5" vertex="1">
          <mxGeometry x="30" width="278" height="40" as="geometry">
            <mxRectangle width="278" height="40" as="alternateBounds" />
          </mxGeometry>
        </mxCell>
        <mxCell id="Lgd85yXxA8p3wqPTsEd0-35" value="parity_offer_config" style="shape=table;startSize=30;container=1;collapsible=1;childLayout=tableLayout;fixedRows=1;rowLines=0;fontStyle=1;align=center;resizeLast=1;" parent="1" vertex="1">
          <mxGeometry x="1250" y="-150" width="489" height="610" as="geometry" />
        </mxCell>
        <mxCell id="Lgd85yXxA8p3wqPTsEd0-36" value="" style="shape=partialRectangle;collapsible=0;dropTarget=0;pointerEvents=0;fillColor=none;points=[[0,0.5],[1,0.5]];portConstraint=eastwest;top=0;left=0;right=0;bottom=1;" parent="Lgd85yXxA8p3wqPTsEd0-35" vertex="1">
          <mxGeometry y="30" width="489" height="30" as="geometry" />
        </mxCell>
        <mxCell id="Lgd85yXxA8p3wqPTsEd0-37" value="PK" style="shape=partialRectangle;overflow=hidden;connectable=0;fillColor=none;top=0;left=0;bottom=0;right=0;fontStyle=1;" parent="Lgd85yXxA8p3wqPTsEd0-36" vertex="1">
          <mxGeometry width="30" height="30" as="geometry">
            <mxRectangle width="30" height="30" as="alternateBounds" />
          </mxGeometry>
        </mxCell>
        <mxCell id="Lgd85yXxA8p3wqPTsEd0-38" value="parify_offer_id              serial4" style="shape=partialRectangle;overflow=hidden;connectable=0;fillColor=none;top=0;left=0;bottom=0;right=0;align=left;spacingLeft=6;fontStyle=1;fontColor=#000000;" parent="Lgd85yXxA8p3wqPTsEd0-36" vertex="1">
          <mxGeometry x="30" width="459" height="30" as="geometry">
            <mxRectangle width="459" height="30" as="alternateBounds" />
          </mxGeometry>
        </mxCell>
        <mxCell id="Lgd85yXxA8p3wqPTsEd0-39" value="" style="shape=partialRectangle;collapsible=0;dropTarget=0;pointerEvents=0;fillColor=none;points=[[0,0.5],[1,0.5]];portConstraint=eastwest;top=0;left=0;right=0;bottom=0;" parent="Lgd85yXxA8p3wqPTsEd0-35" vertex="1">
          <mxGeometry y="60" width="489" height="30" as="geometry" />
        </mxCell>
        <mxCell id="Lgd85yXxA8p3wqPTsEd0-40" value="" style="shape=partialRectangle;overflow=hidden;connectable=0;fillColor=none;top=0;left=0;bottom=0;right=0;" parent="Lgd85yXxA8p3wqPTsEd0-39" vertex="1">
          <mxGeometry width="30" height="30" as="geometry">
            <mxRectangle width="30" height="30" as="alternateBounds" />
          </mxGeometry>
        </mxCell>
        <mxCell id="Lgd85yXxA8p3wqPTsEd0-41" value="name  varchar(100)" style="shape=partialRectangle;overflow=hidden;connectable=0;fillColor=none;top=0;left=0;bottom=0;right=0;align=left;spacingLeft=6;" parent="Lgd85yXxA8p3wqPTsEd0-39" vertex="1">
          <mxGeometry x="30" width="459" height="30" as="geometry">
            <mxRectangle width="459" height="30" as="alternateBounds" />
          </mxGeometry>
        </mxCell>
        <mxCell id="Lgd85yXxA8p3wqPTsEd0-42" value="" style="shape=partialRectangle;collapsible=0;dropTarget=0;pointerEvents=0;fillColor=none;points=[[0,0.5],[1,0.5]];portConstraint=eastwest;top=0;left=0;right=0;bottom=0;" parent="Lgd85yXxA8p3wqPTsEd0-35" vertex="1">
          <mxGeometry y="90" width="489" height="30" as="geometry" />
        </mxCell>
        <mxCell id="Lgd85yXxA8p3wqPTsEd0-43" value="" style="shape=partialRectangle;overflow=hidden;connectable=0;fillColor=none;top=0;left=0;bottom=0;right=0;" parent="Lgd85yXxA8p3wqPTsEd0-42" vertex="1">
          <mxGeometry width="30" height="30" as="geometry">
            <mxRectangle width="30" height="30" as="alternateBounds" />
          </mxGeometry>
        </mxCell>
        <mxCell id="Lgd85yXxA8p3wqPTsEd0-44" value="product_type  varchar(10) (ALL全部, FINANCE金融, LEASING租赁)" style="shape=partialRectangle;overflow=hidden;connectable=0;fillColor=none;top=0;left=0;bottom=0;right=0;align=left;spacingLeft=6;" parent="Lgd85yXxA8p3wqPTsEd0-42" vertex="1">
          <mxGeometry x="30" width="459" height="30" as="geometry">
            <mxRectangle width="459" height="30" as="alternateBounds" />
          </mxGeometry>
        </mxCell>
        <mxCell id="eo6Eqj7wrOhR0pZaT2Og-4" value="" style="shape=partialRectangle;collapsible=0;dropTarget=0;pointerEvents=0;fillColor=none;points=[[0,0.5],[1,0.5]];portConstraint=eastwest;top=0;left=0;right=0;bottom=0;" parent="Lgd85yXxA8p3wqPTsEd0-35" vertex="1">
          <mxGeometry y="120" width="489" height="30" as="geometry" />
        </mxCell>
        <mxCell id="eo6Eqj7wrOhR0pZaT2Og-5" value="" style="shape=partialRectangle;overflow=hidden;connectable=0;fillColor=none;top=0;left=0;bottom=0;right=0;" parent="eo6Eqj7wrOhR0pZaT2Og-4" vertex="1">
          <mxGeometry width="30" height="30" as="geometry">
            <mxRectangle width="30" height="30" as="alternateBounds" />
          </mxGeometry>
        </mxCell>
        <mxCell id="eo6Eqj7wrOhR0pZaT2Og-6" value="fp_keywords  varchar(500)" style="shape=partialRectangle;overflow=hidden;connectable=0;fillColor=none;top=0;left=0;bottom=0;right=0;align=left;spacingLeft=6;" parent="eo6Eqj7wrOhR0pZaT2Og-4" vertex="1">
          <mxGeometry x="30" width="459" height="30" as="geometry">
            <mxRectangle width="459" height="30" as="alternateBounds" />
          </mxGeometry>
        </mxCell>
        <mxCell id="Lgd85yXxA8p3wqPTsEd0-45" value="" style="shape=partialRectangle;collapsible=0;dropTarget=0;pointerEvents=0;fillColor=none;points=[[0,0.5],[1,0.5]];portConstraint=eastwest;top=0;left=0;right=0;bottom=0;" parent="Lgd85yXxA8p3wqPTsEd0-35" vertex="1">
          <mxGeometry y="150" width="489" height="30" as="geometry" />
        </mxCell>
        <mxCell id="Lgd85yXxA8p3wqPTsEd0-46" value="" style="shape=partialRectangle;overflow=hidden;connectable=0;fillColor=none;top=0;left=0;bottom=0;right=0;" parent="Lgd85yXxA8p3wqPTsEd0-45" vertex="1">
          <mxGeometry width="30" height="30" as="geometry">
            <mxRectangle width="30" height="30" as="alternateBounds" />
          </mxGeometry>
        </mxCell>
        <mxCell id="Lgd85yXxA8p3wqPTsEd0-47" value="has_balloon  varchar(3) (NULL未配置, NO无尾款, YES有尾款)" style="shape=partialRectangle;overflow=hidden;connectable=0;fillColor=none;top=0;left=0;bottom=0;right=0;align=left;spacingLeft=6;" parent="Lgd85yXxA8p3wqPTsEd0-45" vertex="1">
          <mxGeometry x="30" width="459" height="30" as="geometry">
            <mxRectangle width="459" height="30" as="alternateBounds" />
          </mxGeometry>
        </mxCell>
        <mxCell id="Lgd85yXxA8p3wqPTsEd0-48" value="" style="shape=partialRectangle;collapsible=0;dropTarget=0;pointerEvents=0;fillColor=none;points=[[0,0.5],[1,0.5]];portConstraint=eastwest;top=0;left=0;right=0;bottom=0;" parent="Lgd85yXxA8p3wqPTsEd0-35" vertex="1">
          <mxGeometry y="180" width="489" height="30" as="geometry" />
        </mxCell>
        <mxCell id="Lgd85yXxA8p3wqPTsEd0-49" value="" style="shape=partialRectangle;overflow=hidden;connectable=0;fillColor=none;top=0;left=0;bottom=0;right=0;" parent="Lgd85yXxA8p3wqPTsEd0-48" vertex="1">
          <mxGeometry width="30" height="30" as="geometry">
            <mxRectangle width="30" height="30" as="alternateBounds" />
          </mxGeometry>
        </mxCell>
        <mxCell id="Lgd85yXxA8p3wqPTsEd0-50" value="terms  varchar(12) (最多支持三个，用英文逗号分隔)" style="shape=partialRectangle;overflow=hidden;connectable=0;fillColor=none;top=0;left=0;bottom=0;right=0;align=left;spacingLeft=6;" parent="Lgd85yXxA8p3wqPTsEd0-48" vertex="1">
          <mxGeometry x="30" width="459" height="30" as="geometry">
            <mxRectangle width="459" height="30" as="alternateBounds" />
          </mxGeometry>
        </mxCell>
        <mxCell id="Lgd85yXxA8p3wqPTsEd0-57" value="" style="shape=partialRectangle;collapsible=0;dropTarget=0;pointerEvents=0;fillColor=none;points=[[0,0.5],[1,0.5]];portConstraint=eastwest;top=0;left=0;right=0;bottom=0;" parent="Lgd85yXxA8p3wqPTsEd0-35" vertex="1">
          <mxGeometry y="210" width="489" height="30" as="geometry" />
        </mxCell>
        <mxCell id="Lgd85yXxA8p3wqPTsEd0-58" value="" style="shape=partialRectangle;overflow=hidden;connectable=0;fillColor=none;top=0;left=0;bottom=0;right=0;" parent="Lgd85yXxA8p3wqPTsEd0-57" vertex="1">
          <mxGeometry width="30" height="30" as="geometry">
            <mxRectangle width="30" height="30" as="alternateBounds" />
          </mxGeometry>
        </mxCell>
        <mxCell id="Lgd85yXxA8p3wqPTsEd0-59" value="max_down_payment_pct  numeric(10, 2)" style="shape=partialRectangle;overflow=hidden;connectable=0;fillColor=none;top=0;left=0;bottom=0;right=0;align=left;spacingLeft=6;" parent="Lgd85yXxA8p3wqPTsEd0-57" vertex="1">
          <mxGeometry x="30" width="459" height="30" as="geometry">
            <mxRectangle width="459" height="30" as="alternateBounds" />
          </mxGeometry>
        </mxCell>
        <mxCell id="Lgd85yXxA8p3wqPTsEd0-60" value="" style="shape=partialRectangle;collapsible=0;dropTarget=0;pointerEvents=0;fillColor=none;points=[[0,0.5],[1,0.5]];portConstraint=eastwest;top=0;left=0;right=0;bottom=0;" parent="Lgd85yXxA8p3wqPTsEd0-35" vertex="1">
          <mxGeometry y="240" width="489" height="30" as="geometry" />
        </mxCell>
        <mxCell id="Lgd85yXxA8p3wqPTsEd0-61" value="" style="shape=partialRectangle;overflow=hidden;connectable=0;fillColor=none;top=0;left=0;bottom=0;right=0;" parent="Lgd85yXxA8p3wqPTsEd0-60" vertex="1">
          <mxGeometry width="30" height="30" as="geometry">
            <mxRectangle width="30" height="30" as="alternateBounds" />
          </mxGeometry>
        </mxCell>
        <mxCell id="Lgd85yXxA8p3wqPTsEd0-62" value="max_down_payment_pct_sort  smallint" style="shape=partialRectangle;overflow=hidden;connectable=0;fillColor=none;top=0;left=0;bottom=0;right=0;align=left;spacingLeft=6;" parent="Lgd85yXxA8p3wqPTsEd0-60" vertex="1">
          <mxGeometry x="30" width="459" height="30" as="geometry">
            <mxRectangle width="459" height="30" as="alternateBounds" />
          </mxGeometry>
        </mxCell>
        <mxCell id="Lgd85yXxA8p3wqPTsEd0-63" value="" style="shape=partialRectangle;collapsible=0;dropTarget=0;pointerEvents=0;fillColor=none;points=[[0,0.5],[1,0.5]];portConstraint=eastwest;top=0;left=0;right=0;bottom=0;strokeColor=#000000;" parent="Lgd85yXxA8p3wqPTsEd0-35" vertex="1">
          <mxGeometry y="270" width="489" height="30" as="geometry" />
        </mxCell>
        <mxCell id="Lgd85yXxA8p3wqPTsEd0-64" value="" style="shape=partialRectangle;overflow=hidden;connectable=0;fillColor=none;top=0;left=0;bottom=0;right=0;" parent="Lgd85yXxA8p3wqPTsEd0-63" vertex="1">
          <mxGeometry width="30" height="30" as="geometry">
            <mxRectangle width="30" height="30" as="alternateBounds" />
          </mxGeometry>
        </mxCell>
        <mxCell id="Lgd85yXxA8p3wqPTsEd0-65" value="min_interest_rate  varchar(3) (NULL未配置, NO不包含零利率, YES包含零利率）" style="shape=partialRectangle;overflow=hidden;connectable=0;fillColor=none;top=0;left=0;bottom=0;right=0;align=left;spacingLeft=6;labelBackgroundColor=default;fontColor=#000000;" parent="Lgd85yXxA8p3wqPTsEd0-63" vertex="1">
          <mxGeometry x="30" width="459" height="30" as="geometry">
            <mxRectangle width="459" height="30" as="alternateBounds" />
          </mxGeometry>
        </mxCell>
        <mxCell id="Lgd85yXxA8p3wqPTsEd0-66" value="" style="shape=partialRectangle;collapsible=0;dropTarget=0;pointerEvents=0;fillColor=none;points=[[0,0.5],[1,0.5]];portConstraint=eastwest;top=0;left=0;right=0;bottom=0;" parent="Lgd85yXxA8p3wqPTsEd0-35" vertex="1">
          <mxGeometry y="300" width="489" height="30" as="geometry" />
        </mxCell>
        <mxCell id="Lgd85yXxA8p3wqPTsEd0-67" value="" style="shape=partialRectangle;overflow=hidden;connectable=0;fillColor=none;top=0;left=0;bottom=0;right=0;" parent="Lgd85yXxA8p3wqPTsEd0-66" vertex="1">
          <mxGeometry width="30" height="30" as="geometry">
            <mxRectangle width="30" height="30" as="alternateBounds" />
          </mxGeometry>
        </mxCell>
        <mxCell id="Lgd85yXxA8p3wqPTsEd0-68" value="min_interest_rate_sort  smallint" style="shape=partialRectangle;overflow=hidden;connectable=0;fillColor=none;top=0;left=0;bottom=0;right=0;align=left;spacingLeft=6;fontColor=#000000;" parent="Lgd85yXxA8p3wqPTsEd0-66" vertex="1">
          <mxGeometry x="30" width="459" height="30" as="geometry">
            <mxRectangle width="459" height="30" as="alternateBounds" />
          </mxGeometry>
        </mxCell>
        <mxCell id="Lgd85yXxA8p3wqPTsEd0-69" value="" style="shape=partialRectangle;collapsible=0;dropTarget=0;pointerEvents=0;fillColor=none;points=[[0,0.5],[1,0.5]];portConstraint=eastwest;top=0;left=0;right=0;bottom=0;" parent="Lgd85yXxA8p3wqPTsEd0-35" vertex="1">
          <mxGeometry y="330" width="489" height="30" as="geometry" />
        </mxCell>
        <mxCell id="Lgd85yXxA8p3wqPTsEd0-70" value="" style="shape=partialRectangle;overflow=hidden;connectable=0;fillColor=none;top=0;left=0;bottom=0;right=0;" parent="Lgd85yXxA8p3wqPTsEd0-69" vertex="1">
          <mxGeometry width="30" height="30" as="geometry">
            <mxRectangle width="30" height="30" as="alternateBounds" />
          </mxGeometry>
        </mxCell>
        <mxCell id="Lgd85yXxA8p3wqPTsEd0-71" value="installment_range_pct  numeric(10, 2)" style="shape=partialRectangle;overflow=hidden;connectable=0;fillColor=none;top=0;left=0;bottom=0;right=0;align=left;spacingLeft=6;" parent="Lgd85yXxA8p3wqPTsEd0-69" vertex="1">
          <mxGeometry x="30" width="459" height="30" as="geometry">
            <mxRectangle width="459" height="30" as="alternateBounds" />
          </mxGeometry>
        </mxCell>
        <mxCell id="Lgd85yXxA8p3wqPTsEd0-72" value="" style="shape=partialRectangle;collapsible=0;dropTarget=0;pointerEvents=0;fillColor=none;points=[[0,0.5],[1,0.5]];portConstraint=eastwest;top=0;left=0;right=0;bottom=0;" parent="Lgd85yXxA8p3wqPTsEd0-35" vertex="1">
          <mxGeometry y="360" width="489" height="30" as="geometry" />
        </mxCell>
        <mxCell id="Lgd85yXxA8p3wqPTsEd0-73" value="" style="shape=partialRectangle;overflow=hidden;connectable=0;fillColor=none;top=0;left=0;bottom=0;right=0;" parent="Lgd85yXxA8p3wqPTsEd0-72" vertex="1">
          <mxGeometry width="30" height="30" as="geometry">
            <mxRectangle width="30" height="30" as="alternateBounds" />
          </mxGeometry>
        </mxCell>
        <mxCell id="Lgd85yXxA8p3wqPTsEd0-74" value="installment_range_pct_sort  smallint" style="shape=partialRectangle;overflow=hidden;connectable=0;fillColor=none;top=0;left=0;bottom=0;right=0;align=left;spacingLeft=6;" parent="Lgd85yXxA8p3wqPTsEd0-72" vertex="1">
          <mxGeometry x="30" width="459" height="30" as="geometry">
            <mxRectangle width="459" height="30" as="alternateBounds" />
          </mxGeometry>
        </mxCell>
        <mxCell id="Lgd85yXxA8p3wqPTsEd0-75" value="" style="shape=partialRectangle;collapsible=0;dropTarget=0;pointerEvents=0;fillColor=none;points=[[0,0.5],[1,0.5]];portConstraint=eastwest;top=0;left=0;right=0;bottom=0;" parent="Lgd85yXxA8p3wqPTsEd0-35" vertex="1">
          <mxGeometry y="390" width="489" height="50" as="geometry" />
        </mxCell>
        <mxCell id="Lgd85yXxA8p3wqPTsEd0-76" value="" style="shape=partialRectangle;overflow=hidden;connectable=0;fillColor=none;top=0;left=0;bottom=0;right=0;" parent="Lgd85yXxA8p3wqPTsEd0-75" vertex="1">
          <mxGeometry width="30" height="50" as="geometry">
            <mxRectangle width="30" height="50" as="alternateBounds" />
          </mxGeometry>
        </mxCell>
        <mxCell id="Lgd85yXxA8p3wqPTsEd0-77" value="final_selection_criteria (lowestInterestRate最低利率, &#xa;lowestInstallment最低月供, lowestDownPayment最低首付)" style="shape=partialRectangle;overflow=hidden;connectable=0;fillColor=none;top=0;left=0;bottom=0;right=0;align=left;spacingLeft=6;fontColor=#000000;" parent="Lgd85yXxA8p3wqPTsEd0-75" vertex="1">
          <mxGeometry x="30" width="459" height="50" as="geometry">
            <mxRectangle width="459" height="50" as="alternateBounds" />
          </mxGeometry>
        </mxCell>
        <mxCell id="eo6Eqj7wrOhR0pZaT2Og-1" value="" style="shape=partialRectangle;collapsible=0;dropTarget=0;pointerEvents=0;fillColor=none;points=[[0,0.5],[1,0.5]];portConstraint=eastwest;top=0;left=0;right=0;bottom=0;" parent="Lgd85yXxA8p3wqPTsEd0-35" vertex="1">
          <mxGeometry y="440" width="489" height="30" as="geometry" />
        </mxCell>
        <mxCell id="eo6Eqj7wrOhR0pZaT2Og-2" value="" style="shape=partialRectangle;overflow=hidden;connectable=0;fillColor=none;top=0;left=0;bottom=0;right=0;" parent="eo6Eqj7wrOhR0pZaT2Og-1" vertex="1">
          <mxGeometry width="30" height="30" as="geometry">
            <mxRectangle width="30" height="30" as="alternateBounds" />
          </mxGeometry>
        </mxCell>
        <mxCell id="eo6Eqj7wrOhR0pZaT2Og-3" value="status  smallint (0已创建未应用, 1已应用, 2删除)" style="shape=partialRectangle;overflow=hidden;connectable=0;fillColor=none;top=0;left=0;bottom=0;right=0;align=left;spacingLeft=6;" parent="eo6Eqj7wrOhR0pZaT2Og-1" vertex="1">
          <mxGeometry x="30" width="459" height="30" as="geometry">
            <mxRectangle width="459" height="30" as="alternateBounds" />
          </mxGeometry>
        </mxCell>
        <mxCell id="3bgdl0B3VmW0oP0leHcF-1" value="" style="shape=partialRectangle;collapsible=0;dropTarget=0;pointerEvents=0;fillColor=none;points=[[0,0.5],[1,0.5]];portConstraint=eastwest;top=0;left=0;right=0;bottom=0;" parent="Lgd85yXxA8p3wqPTsEd0-35" vertex="1">
          <mxGeometry y="470" width="489" height="30" as="geometry" />
        </mxCell>
        <mxCell id="3bgdl0B3VmW0oP0leHcF-2" value="" style="shape=partialRectangle;overflow=hidden;connectable=0;fillColor=none;top=0;left=0;bottom=0;right=0;" parent="3bgdl0B3VmW0oP0leHcF-1" vertex="1">
          <mxGeometry width="30" height="30" as="geometry">
            <mxRectangle width="30" height="30" as="alternateBounds" />
          </mxGeometry>
        </mxCell>
        <mxCell id="3bgdl0B3VmW0oP0leHcF-3" value="create_user  varchar(30)" style="shape=partialRectangle;overflow=hidden;connectable=0;fillColor=none;top=0;left=0;bottom=0;right=0;align=left;spacingLeft=6;" parent="3bgdl0B3VmW0oP0leHcF-1" vertex="1">
          <mxGeometry x="30" width="459" height="30" as="geometry">
            <mxRectangle width="459" height="30" as="alternateBounds" />
          </mxGeometry>
        </mxCell>
        <mxCell id="zZ3A37CLWOh8GCv3uw9L-13" value="" style="shape=partialRectangle;collapsible=0;dropTarget=0;pointerEvents=0;fillColor=none;points=[[0,0.5],[1,0.5]];portConstraint=eastwest;top=0;left=0;right=0;bottom=0;" parent="Lgd85yXxA8p3wqPTsEd0-35" vertex="1">
          <mxGeometry y="500" width="489" height="30" as="geometry" />
        </mxCell>
        <mxCell id="zZ3A37CLWOh8GCv3uw9L-14" value="" style="shape=partialRectangle;overflow=hidden;connectable=0;fillColor=none;top=0;left=0;bottom=0;right=0;" parent="zZ3A37CLWOh8GCv3uw9L-13" vertex="1">
          <mxGeometry width="30" height="30" as="geometry">
            <mxRectangle width="30" height="30" as="alternateBounds" />
          </mxGeometry>
        </mxCell>
        <mxCell id="zZ3A37CLWOh8GCv3uw9L-15" value="create_time  timestamp" style="shape=partialRectangle;overflow=hidden;connectable=0;fillColor=none;top=0;left=0;bottom=0;right=0;align=left;spacingLeft=6;" parent="zZ3A37CLWOh8GCv3uw9L-13" vertex="1">
          <mxGeometry x="30" width="459" height="30" as="geometry">
            <mxRectangle width="459" height="30" as="alternateBounds" />
          </mxGeometry>
        </mxCell>
        <mxCell id="zZ3A37CLWOh8GCv3uw9L-16" value="" style="shape=partialRectangle;collapsible=0;dropTarget=0;pointerEvents=0;fillColor=none;points=[[0,0.5],[1,0.5]];portConstraint=eastwest;top=0;left=0;right=0;bottom=0;" parent="Lgd85yXxA8p3wqPTsEd0-35" vertex="1">
          <mxGeometry y="530" width="489" height="30" as="geometry" />
        </mxCell>
        <mxCell id="zZ3A37CLWOh8GCv3uw9L-17" value="" style="shape=partialRectangle;overflow=hidden;connectable=0;fillColor=none;top=0;left=0;bottom=0;right=0;" parent="zZ3A37CLWOh8GCv3uw9L-16" vertex="1">
          <mxGeometry width="30" height="30" as="geometry">
            <mxRectangle width="30" height="30" as="alternateBounds" />
          </mxGeometry>
        </mxCell>
        <mxCell id="zZ3A37CLWOh8GCv3uw9L-18" value="update_user  varchar(30)" style="shape=partialRectangle;overflow=hidden;connectable=0;fillColor=none;top=0;left=0;bottom=0;right=0;align=left;spacingLeft=6;" parent="zZ3A37CLWOh8GCv3uw9L-16" vertex="1">
          <mxGeometry x="30" width="459" height="30" as="geometry">
            <mxRectangle width="459" height="30" as="alternateBounds" />
          </mxGeometry>
        </mxCell>
        <mxCell id="3bgdl0B3VmW0oP0leHcF-4" value="" style="shape=partialRectangle;collapsible=0;dropTarget=0;pointerEvents=0;fillColor=none;points=[[0,0.5],[1,0.5]];portConstraint=eastwest;top=0;left=0;right=0;bottom=0;" parent="Lgd85yXxA8p3wqPTsEd0-35" vertex="1">
          <mxGeometry y="560" width="489" height="30" as="geometry" />
        </mxCell>
        <mxCell id="3bgdl0B3VmW0oP0leHcF-5" value="" style="shape=partialRectangle;overflow=hidden;connectable=0;fillColor=none;top=0;left=0;bottom=0;right=0;" parent="3bgdl0B3VmW0oP0leHcF-4" vertex="1">
          <mxGeometry width="30" height="30" as="geometry">
            <mxRectangle width="30" height="30" as="alternateBounds" />
          </mxGeometry>
        </mxCell>
        <mxCell id="3bgdl0B3VmW0oP0leHcF-6" value="update_time  timestamp" style="shape=partialRectangle;overflow=hidden;connectable=0;fillColor=none;top=0;left=0;bottom=0;right=0;align=left;spacingLeft=6;" parent="3bgdl0B3VmW0oP0leHcF-4" vertex="1">
          <mxGeometry x="30" width="459" height="30" as="geometry">
            <mxRectangle width="459" height="30" as="alternateBounds" />
          </mxGeometry>
        </mxCell>
        <mxCell id="Lgd85yXxA8p3wqPTsEd0-81" value="group_upselling_offer" style="shape=table;startSize=30;container=1;collapsible=1;childLayout=tableLayout;fixedRows=1;rowLines=0;fontStyle=1;align=center;resizeLast=1;" parent="1" vertex="1">
          <mxGeometry x="790" y="-130" width="285" height="600" as="geometry" />
        </mxCell>
        <mxCell id="Lgd85yXxA8p3wqPTsEd0-82" value="" style="shape=partialRectangle;collapsible=0;dropTarget=0;pointerEvents=0;fillColor=none;points=[[0,0.5],[1,0.5]];portConstraint=eastwest;top=0;left=0;right=0;bottom=1;" parent="Lgd85yXxA8p3wqPTsEd0-81" vertex="1">
          <mxGeometry y="30" width="285" height="30" as="geometry" />
        </mxCell>
        <mxCell id="Lgd85yXxA8p3wqPTsEd0-83" value="PK" style="shape=partialRectangle;overflow=hidden;connectable=0;fillColor=none;top=0;left=0;bottom=0;right=0;fontStyle=1;" parent="Lgd85yXxA8p3wqPTsEd0-82" vertex="1">
          <mxGeometry width="30" height="30" as="geometry">
            <mxRectangle width="30" height="30" as="alternateBounds" />
          </mxGeometry>
        </mxCell>
        <mxCell id="Lgd85yXxA8p3wqPTsEd0-84" value="upselling_id    serial8" style="shape=partialRectangle;overflow=hidden;connectable=0;fillColor=none;top=0;left=0;bottom=0;right=0;align=left;spacingLeft=6;fontStyle=1;" parent="Lgd85yXxA8p3wqPTsEd0-82" vertex="1">
          <mxGeometry x="30" width="255" height="30" as="geometry">
            <mxRectangle width="255" height="30" as="alternateBounds" />
          </mxGeometry>
        </mxCell>
        <mxCell id="Lgd85yXxA8p3wqPTsEd0-85" value="" style="shape=partialRectangle;collapsible=0;dropTarget=0;pointerEvents=0;fillColor=none;points=[[0,0.5],[1,0.5]];portConstraint=eastwest;top=0;left=0;right=0;bottom=0;" parent="Lgd85yXxA8p3wqPTsEd0-81" vertex="1">
          <mxGeometry y="60" width="285" height="30" as="geometry" />
        </mxCell>
        <mxCell id="Lgd85yXxA8p3wqPTsEd0-86" value="idx" style="shape=partialRectangle;overflow=hidden;connectable=0;fillColor=none;top=0;left=0;bottom=0;right=0;" parent="Lgd85yXxA8p3wqPTsEd0-85" vertex="1">
          <mxGeometry width="30" height="30" as="geometry">
            <mxRectangle width="30" height="30" as="alternateBounds" />
          </mxGeometry>
        </mxCell>
        <mxCell id="Lgd85yXxA8p3wqPTsEd0-87" value="group_id int4" style="shape=partialRectangle;overflow=hidden;connectable=0;fillColor=none;top=0;left=0;bottom=0;right=0;align=left;spacingLeft=6;" parent="Lgd85yXxA8p3wqPTsEd0-85" vertex="1">
          <mxGeometry x="30" width="255" height="30" as="geometry">
            <mxRectangle width="255" height="30" as="alternateBounds" />
          </mxGeometry>
        </mxCell>
        <mxCell id="Lgd85yXxA8p3wqPTsEd0-88" value="" style="shape=partialRectangle;collapsible=0;dropTarget=0;pointerEvents=0;fillColor=none;points=[[0,0.5],[1,0.5]];portConstraint=eastwest;top=0;left=0;right=0;bottom=0;" parent="Lgd85yXxA8p3wqPTsEd0-81" vertex="1">
          <mxGeometry y="90" width="285" height="30" as="geometry" />
        </mxCell>
        <mxCell id="Lgd85yXxA8p3wqPTsEd0-89" value="" style="shape=partialRectangle;overflow=hidden;connectable=0;fillColor=none;top=0;left=0;bottom=0;right=0;" parent="Lgd85yXxA8p3wqPTsEd0-88" vertex="1">
          <mxGeometry width="30" height="30" as="geometry">
            <mxRectangle width="30" height="30" as="alternateBounds" />
          </mxGeometry>
        </mxCell>
        <mxCell id="Lgd85yXxA8p3wqPTsEd0-90" value="original_model  varchar(100)" style="shape=partialRectangle;overflow=hidden;connectable=0;fillColor=none;top=0;left=0;bottom=0;right=0;align=left;spacingLeft=6;" parent="Lgd85yXxA8p3wqPTsEd0-88" vertex="1">
          <mxGeometry x="30" width="255" height="30" as="geometry">
            <mxRectangle width="255" height="30" as="alternateBounds" />
          </mxGeometry>
        </mxCell>
        <mxCell id="Lgd85yXxA8p3wqPTsEd0-91" value="" style="shape=partialRectangle;collapsible=0;dropTarget=0;pointerEvents=0;fillColor=none;points=[[0,0.5],[1,0.5]];portConstraint=eastwest;top=0;left=0;right=0;bottom=0;" parent="Lgd85yXxA8p3wqPTsEd0-81" vertex="1">
          <mxGeometry y="120" width="285" height="30" as="geometry" />
        </mxCell>
        <mxCell id="Lgd85yXxA8p3wqPTsEd0-92" value="" style="shape=partialRectangle;overflow=hidden;connectable=0;fillColor=none;top=0;left=0;bottom=0;right=0;" parent="Lgd85yXxA8p3wqPTsEd0-91" vertex="1">
          <mxGeometry width="30" height="30" as="geometry">
            <mxRectangle width="30" height="30" as="alternateBounds" />
          </mxGeometry>
        </mxCell>
        <mxCell id="Lgd85yXxA8p3wqPTsEd0-93" value="upselling_model_1  varchar(100)" style="shape=partialRectangle;overflow=hidden;connectable=0;fillColor=#CCFF99;top=0;left=0;bottom=0;right=0;align=left;spacingLeft=6;" parent="Lgd85yXxA8p3wqPTsEd0-91" vertex="1">
          <mxGeometry x="30" width="255" height="30" as="geometry">
            <mxRectangle width="255" height="30" as="alternateBounds" />
          </mxGeometry>
        </mxCell>
        <mxCell id="bq9kwz9mXwM456cV49Q8-106" value="" style="shape=partialRectangle;collapsible=0;dropTarget=0;pointerEvents=0;fillColor=none;points=[[0,0.5],[1,0.5]];portConstraint=eastwest;top=0;left=0;right=0;bottom=0;" parent="Lgd85yXxA8p3wqPTsEd0-81" vertex="1">
          <mxGeometry y="150" width="285" height="30" as="geometry" />
        </mxCell>
        <mxCell id="bq9kwz9mXwM456cV49Q8-107" value="" style="shape=partialRectangle;overflow=hidden;connectable=0;fillColor=none;top=0;left=0;bottom=0;right=0;" parent="bq9kwz9mXwM456cV49Q8-106" vertex="1">
          <mxGeometry width="30" height="30" as="geometry">
            <mxRectangle width="30" height="30" as="alternateBounds" />
          </mxGeometry>
        </mxCell>
        <mxCell id="bq9kwz9mXwM456cV49Q8-108" value="upselling_model_year_1  int2" style="shape=partialRectangle;overflow=hidden;connectable=0;fillColor=#CCFF99;top=0;left=0;bottom=0;right=0;align=left;spacingLeft=6;" parent="bq9kwz9mXwM456cV49Q8-106" vertex="1">
          <mxGeometry x="30" width="255" height="30" as="geometry">
            <mxRectangle width="255" height="30" as="alternateBounds" />
          </mxGeometry>
        </mxCell>
        <mxCell id="bq9kwz9mXwM456cV49Q8-109" value="" style="shape=partialRectangle;collapsible=0;dropTarget=0;pointerEvents=0;fillColor=none;points=[[0,0.5],[1,0.5]];portConstraint=eastwest;top=0;left=0;right=0;bottom=0;" parent="Lgd85yXxA8p3wqPTsEd0-81" vertex="1">
          <mxGeometry y="180" width="285" height="30" as="geometry" />
        </mxCell>
        <mxCell id="bq9kwz9mXwM456cV49Q8-110" value="" style="shape=partialRectangle;overflow=hidden;connectable=0;fillColor=none;top=0;left=0;bottom=0;right=0;" parent="bq9kwz9mXwM456cV49Q8-109" vertex="1">
          <mxGeometry width="30" height="30" as="geometry">
            <mxRectangle width="30" height="30" as="alternateBounds" />
          </mxGeometry>
        </mxCell>
        <mxCell id="bq9kwz9mXwM456cV49Q8-111" value="upselling_nst_1  varchar(20)" style="shape=partialRectangle;overflow=hidden;connectable=0;fillColor=#CCFF99;top=0;left=0;bottom=0;right=0;align=left;spacingLeft=6;" parent="bq9kwz9mXwM456cV49Q8-109" vertex="1">
          <mxGeometry x="30" width="255" height="30" as="geometry">
            <mxRectangle width="255" height="30" as="alternateBounds" />
          </mxGeometry>
        </mxCell>
        <mxCell id="bq9kwz9mXwM456cV49Q8-112" value="" style="shape=partialRectangle;collapsible=0;dropTarget=0;pointerEvents=0;fillColor=none;points=[[0,0.5],[1,0.5]];portConstraint=eastwest;top=0;left=0;right=0;bottom=0;" parent="Lgd85yXxA8p3wqPTsEd0-81" vertex="1">
          <mxGeometry y="210" width="285" height="30" as="geometry" />
        </mxCell>
        <mxCell id="bq9kwz9mXwM456cV49Q8-113" value="" style="shape=partialRectangle;overflow=hidden;connectable=0;fillColor=none;top=0;left=0;bottom=0;right=0;" parent="bq9kwz9mXwM456cV49Q8-112" vertex="1">
          <mxGeometry width="30" height="30" as="geometry">
            <mxRectangle width="30" height="30" as="alternateBounds" />
          </mxGeometry>
        </mxCell>
        <mxCell id="bq9kwz9mXwM456cV49Q8-114" value="upselling_msrp_1  numeric(16,5)" style="shape=partialRectangle;overflow=hidden;connectable=0;fillColor=#CCFF99;top=0;left=0;bottom=0;right=0;align=left;spacingLeft=6;" parent="bq9kwz9mXwM456cV49Q8-112" vertex="1">
          <mxGeometry x="30" width="255" height="30" as="geometry">
            <mxRectangle width="255" height="30" as="alternateBounds" />
          </mxGeometry>
        </mxCell>
        <mxCell id="Lgd85yXxA8p3wqPTsEd0-94" value="" style="shape=partialRectangle;collapsible=0;dropTarget=0;pointerEvents=0;fillColor=none;points=[[0,0.5],[1,0.5]];portConstraint=eastwest;top=0;left=0;right=0;bottom=0;" parent="Lgd85yXxA8p3wqPTsEd0-81" vertex="1">
          <mxGeometry y="240" width="285" height="30" as="geometry" />
        </mxCell>
        <mxCell id="Lgd85yXxA8p3wqPTsEd0-95" value="" style="shape=partialRectangle;overflow=hidden;connectable=0;fillColor=none;top=0;left=0;bottom=0;right=0;" parent="Lgd85yXxA8p3wqPTsEd0-94" vertex="1">
          <mxGeometry width="30" height="30" as="geometry">
            <mxRectangle width="30" height="30" as="alternateBounds" />
          </mxGeometry>
        </mxCell>
        <mxCell id="Lgd85yXxA8p3wqPTsEd0-96" value="parity_offer_id_1  int4" style="shape=partialRectangle;overflow=hidden;connectable=0;fillColor=none;top=0;left=0;bottom=0;right=0;align=left;spacingLeft=6;" parent="Lgd85yXxA8p3wqPTsEd0-94" vertex="1">
          <mxGeometry x="30" width="255" height="30" as="geometry">
            <mxRectangle width="255" height="30" as="alternateBounds" />
          </mxGeometry>
        </mxCell>
        <mxCell id="gzCo6dUd6nf6RU1FSGX2-4" value="" style="shape=partialRectangle;collapsible=0;dropTarget=0;pointerEvents=0;fillColor=none;points=[[0,0.5],[1,0.5]];portConstraint=eastwest;top=0;left=0;right=0;bottom=0;" parent="Lgd85yXxA8p3wqPTsEd0-81" vertex="1">
          <mxGeometry y="270" width="285" height="30" as="geometry" />
        </mxCell>
        <mxCell id="gzCo6dUd6nf6RU1FSGX2-5" value="" style="shape=partialRectangle;overflow=hidden;connectable=0;fillColor=none;top=0;left=0;bottom=0;right=0;" parent="gzCo6dUd6nf6RU1FSGX2-4" vertex="1">
          <mxGeometry width="30" height="30" as="geometry">
            <mxRectangle width="30" height="30" as="alternateBounds" />
          </mxGeometry>
        </mxCell>
        <mxCell id="gzCo6dUd6nf6RU1FSGX2-6" value="upselling_model_2  varchar(100)" style="shape=partialRectangle;overflow=hidden;connectable=0;fillColor=#FFFF99;top=0;left=0;bottom=0;right=0;align=left;spacingLeft=6;" parent="gzCo6dUd6nf6RU1FSGX2-4" vertex="1">
          <mxGeometry x="30" width="255" height="30" as="geometry">
            <mxRectangle width="255" height="30" as="alternateBounds" />
          </mxGeometry>
        </mxCell>
        <mxCell id="bq9kwz9mXwM456cV49Q8-115" value="" style="shape=partialRectangle;collapsible=0;dropTarget=0;pointerEvents=0;fillColor=none;points=[[0,0.5],[1,0.5]];portConstraint=eastwest;top=0;left=0;right=0;bottom=0;" parent="Lgd85yXxA8p3wqPTsEd0-81" vertex="1">
          <mxGeometry y="300" width="285" height="30" as="geometry" />
        </mxCell>
        <mxCell id="bq9kwz9mXwM456cV49Q8-116" value="" style="shape=partialRectangle;overflow=hidden;connectable=0;fillColor=none;top=0;left=0;bottom=0;right=0;" parent="bq9kwz9mXwM456cV49Q8-115" vertex="1">
          <mxGeometry width="30" height="30" as="geometry">
            <mxRectangle width="30" height="30" as="alternateBounds" />
          </mxGeometry>
        </mxCell>
        <mxCell id="bq9kwz9mXwM456cV49Q8-117" value="upselling_model_year_2  int2" style="shape=partialRectangle;overflow=hidden;connectable=0;fillColor=#FFFF99;top=0;left=0;bottom=0;right=0;align=left;spacingLeft=6;" parent="bq9kwz9mXwM456cV49Q8-115" vertex="1">
          <mxGeometry x="30" width="255" height="30" as="geometry">
            <mxRectangle width="255" height="30" as="alternateBounds" />
          </mxGeometry>
        </mxCell>
        <mxCell id="bq9kwz9mXwM456cV49Q8-118" value="" style="shape=partialRectangle;collapsible=0;dropTarget=0;pointerEvents=0;fillColor=none;points=[[0,0.5],[1,0.5]];portConstraint=eastwest;top=0;left=0;right=0;bottom=0;" parent="Lgd85yXxA8p3wqPTsEd0-81" vertex="1">
          <mxGeometry y="330" width="285" height="30" as="geometry" />
        </mxCell>
        <mxCell id="bq9kwz9mXwM456cV49Q8-119" value="" style="shape=partialRectangle;overflow=hidden;connectable=0;fillColor=none;top=0;left=0;bottom=0;right=0;" parent="bq9kwz9mXwM456cV49Q8-118" vertex="1">
          <mxGeometry width="30" height="30" as="geometry">
            <mxRectangle width="30" height="30" as="alternateBounds" />
          </mxGeometry>
        </mxCell>
        <mxCell id="bq9kwz9mXwM456cV49Q8-120" value="upselling_nst_2  varchar(20)" style="shape=partialRectangle;overflow=hidden;connectable=0;fillColor=#FFFF99;top=0;left=0;bottom=0;right=0;align=left;spacingLeft=6;" parent="bq9kwz9mXwM456cV49Q8-118" vertex="1">
          <mxGeometry x="30" width="255" height="30" as="geometry">
            <mxRectangle width="255" height="30" as="alternateBounds" />
          </mxGeometry>
        </mxCell>
        <mxCell id="bq9kwz9mXwM456cV49Q8-121" value="" style="shape=partialRectangle;collapsible=0;dropTarget=0;pointerEvents=0;fillColor=none;points=[[0,0.5],[1,0.5]];portConstraint=eastwest;top=0;left=0;right=0;bottom=0;" parent="Lgd85yXxA8p3wqPTsEd0-81" vertex="1">
          <mxGeometry y="360" width="285" height="30" as="geometry" />
        </mxCell>
        <mxCell id="bq9kwz9mXwM456cV49Q8-122" value="" style="shape=partialRectangle;overflow=hidden;connectable=0;fillColor=none;top=0;left=0;bottom=0;right=0;" parent="bq9kwz9mXwM456cV49Q8-121" vertex="1">
          <mxGeometry width="30" height="30" as="geometry">
            <mxRectangle width="30" height="30" as="alternateBounds" />
          </mxGeometry>
        </mxCell>
        <mxCell id="bq9kwz9mXwM456cV49Q8-123" value="upselling_msrp_2  numeric(16,5)" style="shape=partialRectangle;overflow=hidden;connectable=0;fillColor=#FFFF99;top=0;left=0;bottom=0;right=0;align=left;spacingLeft=6;" parent="bq9kwz9mXwM456cV49Q8-121" vertex="1">
          <mxGeometry x="30" width="255" height="30" as="geometry">
            <mxRectangle width="255" height="30" as="alternateBounds" />
          </mxGeometry>
        </mxCell>
        <mxCell id="gzCo6dUd6nf6RU1FSGX2-7" value="" style="shape=partialRectangle;collapsible=0;dropTarget=0;pointerEvents=0;fillColor=none;points=[[0,0.5],[1,0.5]];portConstraint=eastwest;top=0;left=0;right=0;bottom=0;" parent="Lgd85yXxA8p3wqPTsEd0-81" vertex="1">
          <mxGeometry y="390" width="285" height="30" as="geometry" />
        </mxCell>
        <mxCell id="gzCo6dUd6nf6RU1FSGX2-8" value="" style="shape=partialRectangle;overflow=hidden;connectable=0;fillColor=none;top=0;left=0;bottom=0;right=0;" parent="gzCo6dUd6nf6RU1FSGX2-7" vertex="1">
          <mxGeometry width="30" height="30" as="geometry">
            <mxRectangle width="30" height="30" as="alternateBounds" />
          </mxGeometry>
        </mxCell>
        <mxCell id="gzCo6dUd6nf6RU1FSGX2-9" value="parity_offer_id_2  int4" style="shape=partialRectangle;overflow=hidden;connectable=0;fillColor=none;top=0;left=0;bottom=0;right=0;align=left;spacingLeft=6;" parent="gzCo6dUd6nf6RU1FSGX2-7" vertex="1">
          <mxGeometry x="30" width="255" height="30" as="geometry">
            <mxRectangle width="255" height="30" as="alternateBounds" />
          </mxGeometry>
        </mxCell>
        <mxCell id="gzCo6dUd6nf6RU1FSGX2-1" value="" style="shape=partialRectangle;collapsible=0;dropTarget=0;pointerEvents=0;fillColor=none;points=[[0,0.5],[1,0.5]];portConstraint=eastwest;top=0;left=0;right=0;bottom=0;" parent="Lgd85yXxA8p3wqPTsEd0-81" vertex="1">
          <mxGeometry y="420" width="285" height="50" as="geometry" />
        </mxCell>
        <mxCell id="gzCo6dUd6nf6RU1FSGX2-2" value="" style="shape=partialRectangle;overflow=hidden;connectable=0;fillColor=none;top=0;left=0;bottom=0;right=0;" parent="gzCo6dUd6nf6RU1FSGX2-1" vertex="1">
          <mxGeometry width="30" height="50" as="geometry">
            <mxRectangle width="30" height="50" as="alternateBounds" />
          </mxGeometry>
        </mxCell>
        <mxCell id="gzCo6dUd6nf6RU1FSGX2-3" value="box_number  int2 (关联页面的一个upselling块，&#xa;同一个box是相同的number，同一个group_id&#xa;内自增，不同group可以重复)" style="shape=partialRectangle;overflow=hidden;connectable=0;fillColor=none;top=0;left=0;bottom=0;right=0;align=left;spacingLeft=6;" parent="gzCo6dUd6nf6RU1FSGX2-1" vertex="1">
          <mxGeometry x="30" width="255" height="50" as="geometry">
            <mxRectangle width="255" height="50" as="alternateBounds" />
          </mxGeometry>
        </mxCell>
        <mxCell id="zZ3A37CLWOh8GCv3uw9L-7" value="" style="shape=partialRectangle;collapsible=0;dropTarget=0;pointerEvents=0;fillColor=none;points=[[0,0.5],[1,0.5]];portConstraint=eastwest;top=0;left=0;right=0;bottom=0;" parent="Lgd85yXxA8p3wqPTsEd0-81" vertex="1">
          <mxGeometry y="470" width="285" height="30" as="geometry" />
        </mxCell>
        <mxCell id="zZ3A37CLWOh8GCv3uw9L-8" value="" style="shape=partialRectangle;overflow=hidden;connectable=0;fillColor=none;top=0;left=0;bottom=0;right=0;" parent="zZ3A37CLWOh8GCv3uw9L-7" vertex="1">
          <mxGeometry width="30" height="30" as="geometry">
            <mxRectangle width="30" height="30" as="alternateBounds" />
          </mxGeometry>
        </mxCell>
        <mxCell id="zZ3A37CLWOh8GCv3uw9L-9" value="create_time  timestamp" style="shape=partialRectangle;overflow=hidden;connectable=0;fillColor=none;top=0;left=0;bottom=0;right=0;align=left;spacingLeft=6;" parent="zZ3A37CLWOh8GCv3uw9L-7" vertex="1">
          <mxGeometry x="30" width="255" height="30" as="geometry">
            <mxRectangle width="255" height="30" as="alternateBounds" />
          </mxGeometry>
        </mxCell>
        <mxCell id="zZ3A37CLWOh8GCv3uw9L-10" value="" style="shape=partialRectangle;collapsible=0;dropTarget=0;pointerEvents=0;fillColor=none;points=[[0,0.5],[1,0.5]];portConstraint=eastwest;top=0;left=0;right=0;bottom=0;" parent="Lgd85yXxA8p3wqPTsEd0-81" vertex="1">
          <mxGeometry y="500" width="285" height="30" as="geometry" />
        </mxCell>
        <mxCell id="zZ3A37CLWOh8GCv3uw9L-11" value="" style="shape=partialRectangle;overflow=hidden;connectable=0;fillColor=none;top=0;left=0;bottom=0;right=0;" parent="zZ3A37CLWOh8GCv3uw9L-10" vertex="1">
          <mxGeometry width="30" height="30" as="geometry">
            <mxRectangle width="30" height="30" as="alternateBounds" />
          </mxGeometry>
        </mxCell>
        <mxCell id="zZ3A37CLWOh8GCv3uw9L-12" value="update_time  timestamp" style="shape=partialRectangle;overflow=hidden;connectable=0;fillColor=none;top=0;left=0;bottom=0;right=0;align=left;spacingLeft=6;" parent="zZ3A37CLWOh8GCv3uw9L-10" vertex="1">
          <mxGeometry x="30" width="255" height="30" as="geometry">
            <mxRectangle width="255" height="30" as="alternateBounds" />
          </mxGeometry>
        </mxCell>
        <mxCell id="jUZU6OPxXkP7sXgpjkYv-56" value="" style="shape=partialRectangle;collapsible=0;dropTarget=0;pointerEvents=0;fillColor=none;points=[[0,0.5],[1,0.5]];portConstraint=eastwest;top=0;left=0;right=0;bottom=0;" vertex="1" parent="Lgd85yXxA8p3wqPTsEd0-81">
          <mxGeometry y="530" width="285" height="30" as="geometry" />
        </mxCell>
        <mxCell id="jUZU6OPxXkP7sXgpjkYv-57" value="" style="shape=partialRectangle;overflow=hidden;connectable=0;fillColor=none;top=0;left=0;bottom=0;right=0;" vertex="1" parent="jUZU6OPxXkP7sXgpjkYv-56">
          <mxGeometry width="30" height="30" as="geometry">
            <mxRectangle width="30" height="30" as="alternateBounds" />
          </mxGeometry>
        </mxCell>
        <mxCell id="jUZU6OPxXkP7sXgpjkYv-58" value="general_offer_id_1  int4" style="shape=partialRectangle;overflow=hidden;connectable=0;fillColor=none;top=0;left=0;bottom=0;right=0;align=left;spacingLeft=6;" vertex="1" parent="jUZU6OPxXkP7sXgpjkYv-56">
          <mxGeometry x="30" width="255" height="30" as="geometry">
            <mxRectangle width="255" height="30" as="alternateBounds" />
          </mxGeometry>
        </mxCell>
        <mxCell id="jUZU6OPxXkP7sXgpjkYv-59" value="" style="shape=partialRectangle;collapsible=0;dropTarget=0;pointerEvents=0;fillColor=none;points=[[0,0.5],[1,0.5]];portConstraint=eastwest;top=0;left=0;right=0;bottom=0;" vertex="1" parent="Lgd85yXxA8p3wqPTsEd0-81">
          <mxGeometry y="560" width="285" height="30" as="geometry" />
        </mxCell>
        <mxCell id="jUZU6OPxXkP7sXgpjkYv-60" value="" style="shape=partialRectangle;overflow=hidden;connectable=0;fillColor=none;top=0;left=0;bottom=0;right=0;" vertex="1" parent="jUZU6OPxXkP7sXgpjkYv-59">
          <mxGeometry width="30" height="30" as="geometry">
            <mxRectangle width="30" height="30" as="alternateBounds" />
          </mxGeometry>
        </mxCell>
        <mxCell id="jUZU6OPxXkP7sXgpjkYv-61" value="general_offer_id_2  int4" style="shape=partialRectangle;overflow=hidden;connectable=0;fillColor=none;top=0;left=0;bottom=0;right=0;align=left;spacingLeft=6;" vertex="1" parent="jUZU6OPxXkP7sXgpjkYv-59">
          <mxGeometry x="30" width="255" height="30" as="geometry">
            <mxRectangle width="255" height="30" as="alternateBounds" />
          </mxGeometry>
        </mxCell>
        <mxCell id="Lgd85yXxA8p3wqPTsEd0-104" style="edgeStyle=orthogonalEdgeStyle;rounded=0;orthogonalLoop=1;jettySize=auto;html=1;exitX=1;exitY=0.5;exitDx=0;exitDy=0;entryX=0;entryY=0.5;entryDx=0;entryDy=0;endArrow=ERoneToMany;endFill=0;startArrow=none;startFill=0;" parent="1" source="Lgd85yXxA8p3wqPTsEd0-17" target="Lgd85yXxA8p3wqPTsEd0-85" edge="1">
          <mxGeometry relative="1" as="geometry" />
        </mxCell>
        <mxCell id="bq9kwz9mXwM456cV49Q8-130" style="edgeStyle=orthogonalEdgeStyle;rounded=0;orthogonalLoop=1;jettySize=auto;html=1;exitX=1;exitY=0.5;exitDx=0;exitDy=0;entryX=0;entryY=0.5;entryDx=0;entryDy=0;endArrow=none;endFill=0;startArrow=ERoneToMany;startFill=0;" parent="1" source="gzCo6dUd6nf6RU1FSGX2-7" target="Lgd85yXxA8p3wqPTsEd0-36" edge="1">
          <mxGeometry relative="1" as="geometry" />
        </mxCell>
        <mxCell id="jUZU6OPxXkP7sXgpjkYv-1" value="general_offer_config" style="shape=table;startSize=30;container=1;collapsible=1;childLayout=tableLayout;fixedRows=1;rowLines=0;fontStyle=1;align=center;resizeLast=1;" vertex="1" parent="1">
          <mxGeometry x="1250" y="560" width="489" height="443" as="geometry" />
        </mxCell>
        <mxCell id="jUZU6OPxXkP7sXgpjkYv-2" value="" style="shape=partialRectangle;collapsible=0;dropTarget=0;pointerEvents=0;fillColor=none;points=[[0,0.5],[1,0.5]];portConstraint=eastwest;top=0;left=0;right=0;bottom=1;" vertex="1" parent="jUZU6OPxXkP7sXgpjkYv-1">
          <mxGeometry y="30" width="489" height="30" as="geometry" />
        </mxCell>
        <mxCell id="jUZU6OPxXkP7sXgpjkYv-3" value="PK" style="shape=partialRectangle;overflow=hidden;connectable=0;fillColor=none;top=0;left=0;bottom=0;right=0;fontStyle=1;" vertex="1" parent="jUZU6OPxXkP7sXgpjkYv-2">
          <mxGeometry width="30" height="30" as="geometry">
            <mxRectangle width="30" height="30" as="alternateBounds" />
          </mxGeometry>
        </mxCell>
        <mxCell id="jUZU6OPxXkP7sXgpjkYv-4" value="general_offer_id        serial4" style="shape=partialRectangle;overflow=hidden;connectable=0;fillColor=none;top=0;left=0;bottom=0;right=0;align=left;spacingLeft=6;fontStyle=1;fontColor=#000000;" vertex="1" parent="jUZU6OPxXkP7sXgpjkYv-2">
          <mxGeometry x="30" width="459" height="30" as="geometry">
            <mxRectangle width="459" height="30" as="alternateBounds" />
          </mxGeometry>
        </mxCell>
        <mxCell id="jUZU6OPxXkP7sXgpjkYv-5" value="" style="shape=partialRectangle;collapsible=0;dropTarget=0;pointerEvents=0;fillColor=none;points=[[0,0.5],[1,0.5]];portConstraint=eastwest;top=0;left=0;right=0;bottom=0;" vertex="1" parent="jUZU6OPxXkP7sXgpjkYv-1">
          <mxGeometry y="60" width="489" height="30" as="geometry" />
        </mxCell>
        <mxCell id="jUZU6OPxXkP7sXgpjkYv-6" value="" style="shape=partialRectangle;overflow=hidden;connectable=0;fillColor=none;top=0;left=0;bottom=0;right=0;" vertex="1" parent="jUZU6OPxXkP7sXgpjkYv-5">
          <mxGeometry width="30" height="30" as="geometry">
            <mxRectangle width="30" height="30" as="alternateBounds" />
          </mxGeometry>
        </mxCell>
        <mxCell id="jUZU6OPxXkP7sXgpjkYv-7" value="name  varchar(100)" style="shape=partialRectangle;overflow=hidden;connectable=0;fillColor=none;top=0;left=0;bottom=0;right=0;align=left;spacingLeft=6;" vertex="1" parent="jUZU6OPxXkP7sXgpjkYv-5">
          <mxGeometry x="30" width="459" height="30" as="geometry">
            <mxRectangle width="459" height="30" as="alternateBounds" />
          </mxGeometry>
        </mxCell>
        <mxCell id="jUZU6OPxXkP7sXgpjkYv-8" value="" style="shape=partialRectangle;collapsible=0;dropTarget=0;pointerEvents=0;fillColor=none;points=[[0,0.5],[1,0.5]];portConstraint=eastwest;top=0;left=0;right=0;bottom=0;" vertex="1" parent="jUZU6OPxXkP7sXgpjkYv-1">
          <mxGeometry y="90" width="489" height="30" as="geometry" />
        </mxCell>
        <mxCell id="jUZU6OPxXkP7sXgpjkYv-9" value="" style="shape=partialRectangle;overflow=hidden;connectable=0;fillColor=none;top=0;left=0;bottom=0;right=0;" vertex="1" parent="jUZU6OPxXkP7sXgpjkYv-8">
          <mxGeometry width="30" height="30" as="geometry">
            <mxRectangle width="30" height="30" as="alternateBounds" />
          </mxGeometry>
        </mxCell>
        <mxCell id="jUZU6OPxXkP7sXgpjkYv-10" value="product_type  varchar(10) (ALL全部, FINANCE金融, LEASING租赁)" style="shape=partialRectangle;overflow=hidden;connectable=0;fillColor=none;top=0;left=0;bottom=0;right=0;align=left;spacingLeft=6;" vertex="1" parent="jUZU6OPxXkP7sXgpjkYv-8">
          <mxGeometry x="30" width="459" height="30" as="geometry">
            <mxRectangle width="459" height="30" as="alternateBounds" />
          </mxGeometry>
        </mxCell>
        <mxCell id="jUZU6OPxXkP7sXgpjkYv-11" value="" style="shape=partialRectangle;collapsible=0;dropTarget=0;pointerEvents=0;fillColor=none;points=[[0,0.5],[1,0.5]];portConstraint=eastwest;top=0;left=0;right=0;bottom=0;" vertex="1" parent="jUZU6OPxXkP7sXgpjkYv-1">
          <mxGeometry y="120" width="489" height="30" as="geometry" />
        </mxCell>
        <mxCell id="jUZU6OPxXkP7sXgpjkYv-12" value="" style="shape=partialRectangle;overflow=hidden;connectable=0;fillColor=none;top=0;left=0;bottom=0;right=0;" vertex="1" parent="jUZU6OPxXkP7sXgpjkYv-11">
          <mxGeometry width="30" height="30" as="geometry">
            <mxRectangle width="30" height="30" as="alternateBounds" />
          </mxGeometry>
        </mxCell>
        <mxCell id="jUZU6OPxXkP7sXgpjkYv-13" value="fp_keywords  varchar(500)" style="shape=partialRectangle;overflow=hidden;connectable=0;fillColor=none;top=0;left=0;bottom=0;right=0;align=left;spacingLeft=6;" vertex="1" parent="jUZU6OPxXkP7sXgpjkYv-11">
          <mxGeometry x="30" width="459" height="30" as="geometry">
            <mxRectangle width="459" height="30" as="alternateBounds" />
          </mxGeometry>
        </mxCell>
        <mxCell id="jUZU6OPxXkP7sXgpjkYv-14" value="" style="shape=partialRectangle;collapsible=0;dropTarget=0;pointerEvents=0;fillColor=none;points=[[0,0.5],[1,0.5]];portConstraint=eastwest;top=0;left=0;right=0;bottom=0;" vertex="1" parent="jUZU6OPxXkP7sXgpjkYv-1">
          <mxGeometry y="150" width="489" height="30" as="geometry" />
        </mxCell>
        <mxCell id="jUZU6OPxXkP7sXgpjkYv-15" value="" style="shape=partialRectangle;overflow=hidden;connectable=0;fillColor=none;top=0;left=0;bottom=0;right=0;" vertex="1" parent="jUZU6OPxXkP7sXgpjkYv-14">
          <mxGeometry width="30" height="30" as="geometry">
            <mxRectangle width="30" height="30" as="alternateBounds" />
          </mxGeometry>
        </mxCell>
        <mxCell id="jUZU6OPxXkP7sXgpjkYv-16" value="has_balloon  varchar(3) (NO无尾款, YES有尾款)" style="shape=partialRectangle;overflow=hidden;connectable=0;fillColor=none;top=0;left=0;bottom=0;right=0;align=left;spacingLeft=6;" vertex="1" parent="jUZU6OPxXkP7sXgpjkYv-14">
          <mxGeometry x="30" width="459" height="30" as="geometry">
            <mxRectangle width="459" height="30" as="alternateBounds" />
          </mxGeometry>
        </mxCell>
        <mxCell id="jUZU6OPxXkP7sXgpjkYv-17" value="" style="shape=partialRectangle;collapsible=0;dropTarget=0;pointerEvents=0;fillColor=none;points=[[0,0.5],[1,0.5]];portConstraint=eastwest;top=0;left=0;right=0;bottom=0;" vertex="1" parent="jUZU6OPxXkP7sXgpjkYv-1">
          <mxGeometry y="180" width="489" height="30" as="geometry" />
        </mxCell>
        <mxCell id="jUZU6OPxXkP7sXgpjkYv-18" value="" style="shape=partialRectangle;overflow=hidden;connectable=0;fillColor=none;top=0;left=0;bottom=0;right=0;" vertex="1" parent="jUZU6OPxXkP7sXgpjkYv-17">
          <mxGeometry width="30" height="30" as="geometry">
            <mxRectangle width="30" height="30" as="alternateBounds" />
          </mxGeometry>
        </mxCell>
        <mxCell id="jUZU6OPxXkP7sXgpjkYv-19" value="terms  varchar(12) (最多支持三个，用英文逗号分隔)" style="shape=partialRectangle;overflow=hidden;connectable=0;fillColor=none;top=0;left=0;bottom=0;right=0;align=left;spacingLeft=6;" vertex="1" parent="jUZU6OPxXkP7sXgpjkYv-17">
          <mxGeometry x="30" width="459" height="30" as="geometry">
            <mxRectangle width="459" height="30" as="alternateBounds" />
          </mxGeometry>
        </mxCell>
        <mxCell id="jUZU6OPxXkP7sXgpjkYv-20" value="" style="shape=partialRectangle;collapsible=0;dropTarget=0;pointerEvents=0;fillColor=none;points=[[0,0.5],[1,0.5]];portConstraint=eastwest;top=0;left=0;right=0;bottom=0;" vertex="1" parent="jUZU6OPxXkP7sXgpjkYv-1">
          <mxGeometry y="210" width="489" height="30" as="geometry" />
        </mxCell>
        <mxCell id="jUZU6OPxXkP7sXgpjkYv-21" value="" style="shape=partialRectangle;overflow=hidden;connectable=0;fillColor=none;top=0;left=0;bottom=0;right=0;" vertex="1" parent="jUZU6OPxXkP7sXgpjkYv-20">
          <mxGeometry width="30" height="30" as="geometry">
            <mxRectangle width="30" height="30" as="alternateBounds" />
          </mxGeometry>
        </mxCell>
        <mxCell id="jUZU6OPxXkP7sXgpjkYv-22" value="down_payment_pct  numeric(10, 2)" style="shape=partialRectangle;overflow=hidden;connectable=0;fillColor=none;top=0;left=0;bottom=0;right=0;align=left;spacingLeft=6;" vertex="1" parent="jUZU6OPxXkP7sXgpjkYv-20">
          <mxGeometry x="30" width="459" height="30" as="geometry">
            <mxRectangle width="459" height="30" as="alternateBounds" />
          </mxGeometry>
        </mxCell>
        <mxCell id="jUZU6OPxXkP7sXgpjkYv-26" value="" style="shape=partialRectangle;collapsible=0;dropTarget=0;pointerEvents=0;fillColor=none;points=[[0,0.5],[1,0.5]];portConstraint=eastwest;top=0;left=0;right=0;bottom=0;strokeColor=#000000;" vertex="1" parent="jUZU6OPxXkP7sXgpjkYv-1">
          <mxGeometry y="240" width="489" height="30" as="geometry" />
        </mxCell>
        <mxCell id="jUZU6OPxXkP7sXgpjkYv-27" value="" style="shape=partialRectangle;overflow=hidden;connectable=0;fillColor=none;top=0;left=0;bottom=0;right=0;" vertex="1" parent="jUZU6OPxXkP7sXgpjkYv-26">
          <mxGeometry width="30" height="30" as="geometry">
            <mxRectangle width="30" height="30" as="alternateBounds" />
          </mxGeometry>
        </mxCell>
        <mxCell id="jUZU6OPxXkP7sXgpjkYv-28" value="min_interest_rate  varchar(3) (NO不包含零利率, YES包含零利率）" style="shape=partialRectangle;overflow=hidden;connectable=0;fillColor=none;top=0;left=0;bottom=0;right=0;align=left;spacingLeft=6;labelBackgroundColor=default;fontColor=#000000;" vertex="1" parent="jUZU6OPxXkP7sXgpjkYv-26">
          <mxGeometry x="30" width="459" height="30" as="geometry">
            <mxRectangle width="459" height="30" as="alternateBounds" />
          </mxGeometry>
        </mxCell>
        <mxCell id="jUZU6OPxXkP7sXgpjkYv-41" value="" style="shape=partialRectangle;collapsible=0;dropTarget=0;pointerEvents=0;fillColor=none;points=[[0,0.5],[1,0.5]];portConstraint=eastwest;top=0;left=0;right=0;bottom=0;" vertex="1" parent="jUZU6OPxXkP7sXgpjkYv-1">
          <mxGeometry y="270" width="489" height="30" as="geometry" />
        </mxCell>
        <mxCell id="jUZU6OPxXkP7sXgpjkYv-42" value="" style="shape=partialRectangle;overflow=hidden;connectable=0;fillColor=none;top=0;left=0;bottom=0;right=0;" vertex="1" parent="jUZU6OPxXkP7sXgpjkYv-41">
          <mxGeometry width="30" height="30" as="geometry">
            <mxRectangle width="30" height="30" as="alternateBounds" />
          </mxGeometry>
        </mxCell>
        <mxCell id="jUZU6OPxXkP7sXgpjkYv-43" value="status  smallint (0已创建未应用, 1已应用, 2删除)" style="shape=partialRectangle;overflow=hidden;connectable=0;fillColor=none;top=0;left=0;bottom=0;right=0;align=left;spacingLeft=6;" vertex="1" parent="jUZU6OPxXkP7sXgpjkYv-41">
          <mxGeometry x="30" width="459" height="30" as="geometry">
            <mxRectangle width="459" height="30" as="alternateBounds" />
          </mxGeometry>
        </mxCell>
        <mxCell id="jUZU6OPxXkP7sXgpjkYv-44" value="" style="shape=partialRectangle;collapsible=0;dropTarget=0;pointerEvents=0;fillColor=none;points=[[0,0.5],[1,0.5]];portConstraint=eastwest;top=0;left=0;right=0;bottom=0;" vertex="1" parent="jUZU6OPxXkP7sXgpjkYv-1">
          <mxGeometry y="300" width="489" height="30" as="geometry" />
        </mxCell>
        <mxCell id="jUZU6OPxXkP7sXgpjkYv-45" value="" style="shape=partialRectangle;overflow=hidden;connectable=0;fillColor=none;top=0;left=0;bottom=0;right=0;" vertex="1" parent="jUZU6OPxXkP7sXgpjkYv-44">
          <mxGeometry width="30" height="30" as="geometry">
            <mxRectangle width="30" height="30" as="alternateBounds" />
          </mxGeometry>
        </mxCell>
        <mxCell id="jUZU6OPxXkP7sXgpjkYv-46" value="create_user  varchar(30)" style="shape=partialRectangle;overflow=hidden;connectable=0;fillColor=none;top=0;left=0;bottom=0;right=0;align=left;spacingLeft=6;" vertex="1" parent="jUZU6OPxXkP7sXgpjkYv-44">
          <mxGeometry x="30" width="459" height="30" as="geometry">
            <mxRectangle width="459" height="30" as="alternateBounds" />
          </mxGeometry>
        </mxCell>
        <mxCell id="jUZU6OPxXkP7sXgpjkYv-47" value="" style="shape=partialRectangle;collapsible=0;dropTarget=0;pointerEvents=0;fillColor=none;points=[[0,0.5],[1,0.5]];portConstraint=eastwest;top=0;left=0;right=0;bottom=0;" vertex="1" parent="jUZU6OPxXkP7sXgpjkYv-1">
          <mxGeometry y="330" width="489" height="30" as="geometry" />
        </mxCell>
        <mxCell id="jUZU6OPxXkP7sXgpjkYv-48" value="" style="shape=partialRectangle;overflow=hidden;connectable=0;fillColor=none;top=0;left=0;bottom=0;right=0;" vertex="1" parent="jUZU6OPxXkP7sXgpjkYv-47">
          <mxGeometry width="30" height="30" as="geometry">
            <mxRectangle width="30" height="30" as="alternateBounds" />
          </mxGeometry>
        </mxCell>
        <mxCell id="jUZU6OPxXkP7sXgpjkYv-49" value="create_time  timestamp" style="shape=partialRectangle;overflow=hidden;connectable=0;fillColor=none;top=0;left=0;bottom=0;right=0;align=left;spacingLeft=6;" vertex="1" parent="jUZU6OPxXkP7sXgpjkYv-47">
          <mxGeometry x="30" width="459" height="30" as="geometry">
            <mxRectangle width="459" height="30" as="alternateBounds" />
          </mxGeometry>
        </mxCell>
        <mxCell id="jUZU6OPxXkP7sXgpjkYv-50" value="" style="shape=partialRectangle;collapsible=0;dropTarget=0;pointerEvents=0;fillColor=none;points=[[0,0.5],[1,0.5]];portConstraint=eastwest;top=0;left=0;right=0;bottom=0;" vertex="1" parent="jUZU6OPxXkP7sXgpjkYv-1">
          <mxGeometry y="360" width="489" height="30" as="geometry" />
        </mxCell>
        <mxCell id="jUZU6OPxXkP7sXgpjkYv-51" value="" style="shape=partialRectangle;overflow=hidden;connectable=0;fillColor=none;top=0;left=0;bottom=0;right=0;" vertex="1" parent="jUZU6OPxXkP7sXgpjkYv-50">
          <mxGeometry width="30" height="30" as="geometry">
            <mxRectangle width="30" height="30" as="alternateBounds" />
          </mxGeometry>
        </mxCell>
        <mxCell id="jUZU6OPxXkP7sXgpjkYv-52" value="update_user  varchar(30)" style="shape=partialRectangle;overflow=hidden;connectable=0;fillColor=none;top=0;left=0;bottom=0;right=0;align=left;spacingLeft=6;" vertex="1" parent="jUZU6OPxXkP7sXgpjkYv-50">
          <mxGeometry x="30" width="459" height="30" as="geometry">
            <mxRectangle width="459" height="30" as="alternateBounds" />
          </mxGeometry>
        </mxCell>
        <mxCell id="jUZU6OPxXkP7sXgpjkYv-53" value="" style="shape=partialRectangle;collapsible=0;dropTarget=0;pointerEvents=0;fillColor=none;points=[[0,0.5],[1,0.5]];portConstraint=eastwest;top=0;left=0;right=0;bottom=0;" vertex="1" parent="jUZU6OPxXkP7sXgpjkYv-1">
          <mxGeometry y="390" width="489" height="30" as="geometry" />
        </mxCell>
        <mxCell id="jUZU6OPxXkP7sXgpjkYv-54" value="" style="shape=partialRectangle;overflow=hidden;connectable=0;fillColor=none;top=0;left=0;bottom=0;right=0;" vertex="1" parent="jUZU6OPxXkP7sXgpjkYv-53">
          <mxGeometry width="30" height="30" as="geometry">
            <mxRectangle width="30" height="30" as="alternateBounds" />
          </mxGeometry>
        </mxCell>
        <mxCell id="jUZU6OPxXkP7sXgpjkYv-55" value="update_time  timestamp" style="shape=partialRectangle;overflow=hidden;connectable=0;fillColor=none;top=0;left=0;bottom=0;right=0;align=left;spacingLeft=6;" vertex="1" parent="jUZU6OPxXkP7sXgpjkYv-53">
          <mxGeometry x="30" width="459" height="30" as="geometry">
            <mxRectangle width="459" height="30" as="alternateBounds" />
          </mxGeometry>
        </mxCell>
        <mxCell id="jUZU6OPxXkP7sXgpjkYv-65" style="edgeStyle=orthogonalEdgeStyle;rounded=0;orthogonalLoop=1;jettySize=auto;html=1;exitX=1;exitY=0.5;exitDx=0;exitDy=0;entryX=0;entryY=0.5;entryDx=0;entryDy=0;endArrow=none;endFill=0;startArrow=ERoneToMany;startFill=0;" edge="1" parent="1" source="jUZU6OPxXkP7sXgpjkYv-56" target="jUZU6OPxXkP7sXgpjkYv-2">
          <mxGeometry relative="1" as="geometry" />
        </mxCell>
        <mxCell id="jUZU6OPxXkP7sXgpjkYv-66" style="edgeStyle=orthogonalEdgeStyle;rounded=0;orthogonalLoop=1;jettySize=auto;html=1;exitX=1;exitY=0.5;exitDx=0;exitDy=0;endArrow=none;endFill=0;startArrow=ERoneToMany;startFill=0;" edge="1" parent="1" source="jUZU6OPxXkP7sXgpjkYv-59" target="jUZU6OPxXkP7sXgpjkYv-2">
          <mxGeometry relative="1" as="geometry" />
        </mxCell>
        <mxCell id="jUZU6OPxXkP7sXgpjkYv-158" style="edgeStyle=orthogonalEdgeStyle;rounded=0;orthogonalLoop=1;jettySize=auto;html=1;exitX=1;exitY=0.5;exitDx=0;exitDy=0;entryX=0;entryY=0.5;entryDx=0;entryDy=0;endArrow=none;endFill=0;startArrow=ERoneToMany;startFill=0;" edge="1" parent="1" source="Lgd85yXxA8p3wqPTsEd0-94" target="Lgd85yXxA8p3wqPTsEd0-36">
          <mxGeometry relative="1" as="geometry" />
        </mxCell>
      </root>
    </mxGraphModel>
  </diagram>
</mxfile>
